<?xml version="1.0" encoding="UTF-8" standalone="no"?>
<svg width="20px" height="16px" viewBox="0 0 20 16" version="1.1" xmlns="http://www.w3.org/2000/svg" xmlns:xlink="http://www.w3.org/1999/xlink">
    <!-- Generator: sketchtool 3.6.1 (26313) - http://www.bohemiancoding.com/sketch -->
    <title>2E361F55-A004-468D-9040-8D1A632E4744</title>
    <desc>Created with sketchtool.</desc>
    <defs>
        <linearGradient x1="50%" y1="88.7514962%" x2="50%" y2="100%" id="linearGradient-1">
            <stop stop-color="#C7C7C7" offset="0%"></stop>
            <stop stop-color="#CAC8C8" offset="100%"></stop>
        </linearGradient>
        <filter x="-50%" y="-50%" width="200%" height="200%" filterUnits="objectBoundingBox" id="filter-2">
            <feGaussianBlur stdDeviation="0" in="SourceGraphic" result="blur"></feGaussianBlur>
        </filter>
        <linearGradient x1="50%" y1="0%" x2="50%" y2="100%" id="linearGradient-3">
            <stop stop-color="#191919" offset="0%"></stop>
            <stop stop-color="#070707" offset="100%"></stop>
        </linearGradient>
        <linearGradient x1="50%" y1="0%" x2="50%" y2="100%" id="linearGradient-4">
            <stop stop-color="#D8D8D8" offset="0%"></stop>
            <stop stop-color="#D6D6D6" offset="100%"></stop>
        </linearGradient>
        <path id="path-5" d="M0,0.0565574188 L9.98533428,0.0565574188 L9.98533428,9.55729643 L0,9.55729643"></path>
    </defs>
    <g id="Web" stroke="none" stroke-width="1" fill="none" fill-rule="evenodd">
        <g id="01.01-Matchs---myBall" transform="translate(-1088.000000, -820.000000)">
            <g id="Group-19" transform="translate(1025.000000, 0.000000)">
                <g id="myBall" transform="translate(63.000000, 820.000000)">
                    <path d="M11.4761902,14.139315 C11.4928647,15.1632444 10.7255044,15.9587927 9.66375615,15.9587927 L9.63944798,15.9587927 C8.57981048,15.9587927 7.80983296,15.1664274 7.82696372,14.139315 L11.4761902,14.139315 Z" id="base" fill="url(#linearGradient-1)"></path>
                    <path id="Rectangle-14" fill="#F0EFEF"></path>
                    <path d="M7.83000632,14.0077865 L7.79749168,14.5077865 L11.5063144,14.5077865 L11.4708901,14.0077865 L7.83000632,14.0077865 Z" id="shadow" fill="#000000" opacity="0.11" filter="url(#filter-2)"></path>
                    <g id="upper" transform="translate(0.259217, 0.000000)">
                        <rect id="bezel" fill="url(#linearGradient-3)" x="0" y="0" width="19.0199279" height="12.2759944"></rect>
                        <rect id="panel" fill="#2A2A2A" x="0.748656736" y="0.78917107" width="17.5226144" height="10.6976523"></rect>
                        <rect id="frame-bottom" fill="url(#linearGradient-4)" x="0" y="12.2759944" width="19.0199279" height="1.86332058" rx="20"></rect>
                    </g>
                    <g id="camera" transform="translate(9.570666, 0.372664)">
                        <circle id="lens" fill="#141414" cx="0.25" cy="0.25" r="0.25"></circle>
                        <ellipse id="aperture" fill-opacity="0.695714614" fill="#190E37" cx="0.330645161" cy="0.33" rx="0.25" ry="0.25"></ellipse>
                    </g>
                    <g id="Group" transform="translate(4.665899, 1.556757)">
                        <g id="Page-1">
                            <path d="M7.10318313,4.4628582 C7.10318313,5.68970052 6.09076332,6.68547403 4.84325156,6.68547403 C3.59579934,6.68547403 2.58331998,5.69169667 2.58331998,4.4628582 C2.58331998,3.23401974 3.59579934,2.24024238 4.84325156,2.24024238 C6.09076332,2.24024238 7.10318313,3.23601589 7.10318313,4.4628582" id="Fill-1" fill="#FFFFFF"></path>
                            <path d="M2.64561815,4.48125902 C2.66771013,4.58142917 2.69784096,4.6816598 2.73601065,4.77771668 C2.79627232,4.93111734 2.87862596,5.08034424 2.97908192,5.21940895 C2.96901846,5.34208109 2.98307157,5.54248186 3.10365445,5.78171672 C3.10162985,5.77760345 3.09758065,5.77554682 3.0956156,5.77149404 C3.08757674,5.76127137 3.07953788,5.74899205 3.07149902,5.73876938 C2.97705732,5.61198398 2.89672828,5.4749759 2.83241741,5.33185841 C2.71391868,5.06606878 2.64764275,4.77572054 2.64561815,4.48331566 C2.64359355,4.48537229 2.64561815,4.48331566 2.64561815,4.48125902 L2.64561815,4.48125902 Z M3.25228402,3.41187014 C3.25627367,3.40781736 3.26032288,3.4037041 3.26431253,3.39959083 L4.06587606,3.54476495 L4.28078155,4.38308502 L3.60986436,5.29913374 L3.08150293,5.11718217 C2.99313503,4.99245341 2.92280991,4.85955859 2.86862205,4.72255052 C2.80228658,4.55076114 2.76215183,4.37286235 2.75208837,4.19296741 C2.95698994,3.70016175 3.16790578,3.48548552 3.25228402,3.41187014 L3.25228402,3.41187014 Z M3.43908327,2.79844898 C3.61587862,2.65533149 3.81274133,2.53060273 4.02770637,2.45493071 C4.23058334,2.38337197 4.46764035,2.40587396 4.67855618,2.42837595 C4.6946339,2.43043258 4.89548627,2.45293457 4.89548627,2.45904398 L4.8774435,2.96406846 L4.11208461,3.40781736 L3.30653143,3.26264324 C3.3286234,3.13585784 3.36476849,2.95178915 3.38686047,2.84139633 C3.40496279,2.82712087 3.42300556,2.81278493 3.43908327,2.79844898 L3.43908327,2.79844898 Z M5.04417538,2.45698735 C5.2349643,2.39770791 5.64881665,2.48559875 5.81554853,2.52449331 C5.98829467,2.60833137 6.1490123,2.71461093 6.2916276,2.83933969 C6.41816519,2.94773637 6.53064967,3.07040851 6.62908103,3.20535995 C6.62509137,3.20947322 6.58489708,3.43437213 6.5607805,3.51409692 L5.76332572,3.55299149 L5.02404846,2.96207232 L5.04417538,2.45698735 Z M6.89829347,4.25019021 C6.89829347,4.33402827 6.89025461,4.45264762 6.86411343,4.59165185 C6.8339826,4.74910528 6.78777405,4.89839267 6.72352273,5.03739689 C6.67332452,5.14373694 6.61502791,5.24390708 6.54672738,5.33796782 C6.35790353,5.42386251 6.13293458,5.44225123 6.01038665,5.4463645 L5.48607442,4.49353834 L5.79744621,3.69199571 L6.58692168,3.65316163 C6.73156159,3.83716983 6.83201755,4.05595933 6.89829347,4.25019021 L6.89829347,4.25019021 Z M6.85809918,5.09468018 C6.9243751,4.95355884 6.97260825,4.80021867 7.00476369,4.64276524 C7.01280254,4.68365595 7.0188168,4.71843725 7.02280646,4.7450525 C7.00875334,4.84522265 6.98868597,4.94539279 6.96057974,5.04562343 C6.87215229,5.35230376 6.72149813,5.62631992 6.52666001,5.85527161 C6.57888282,5.7223768 6.61306286,5.57720268 6.63515483,5.46680985 C6.71947353,5.35230376 6.79581291,5.227575 6.85809918,5.09468018 L6.85809918,5.09468018 Z M3.72234883,5.38908121 L4.39130097,4.47514961 L5.35149797,4.55281777 L5.88581411,5.52403265 C5.73718455,5.85732824 5.40776998,6.0965631 5.40776998,6.0965631 C5.40574538,6.0965631 5.21692152,6.1661257 4.93967022,6.18245779 C4.77698754,6.19268047 4.61829452,6.18451442 4.46561575,6.15590302 C4.34104321,6.13340103 4.21849528,6.09861973 4.10202115,6.05161961 L3.72234883,5.38908121 Z M5.58855498,6.48913812 C5.56443841,6.4993608 5.54032183,6.50958348 5.51620525,6.51781001 C5.38764306,6.5627535 5.25104201,6.58936876 5.11646556,6.60570085 C4.82718575,6.64048215 4.53189167,6.62003679 4.25065072,6.54230815 C4.06385146,6.49119476 3.87901726,6.4135266 3.71228537,6.3153526 C3.79267396,6.30718656 3.89509497,6.27651852 4.07587997,6.1947371 C4.19443825,6.24173722 4.31692664,6.27446189 4.44352378,6.29696388 C4.60823106,6.32557528 4.7809772,6.33579796 4.95574794,6.32351865 C5.11247591,6.31329597 5.24300315,6.28879783 5.3314306,6.26629585 C5.43587621,6.33991122 5.57450187,6.42985869 5.64077779,6.47486267 C5.63071433,6.46869277 5.59855889,6.48508535 5.58855498,6.48913812 L5.58855498,6.48913812 Z M2.83444201,5.5731499 C2.98110652,5.82871684 3.17392003,6.05161961 3.40698739,6.23562781 C3.64803405,6.42374928 3.92320121,6.5627535 4.22254448,6.64453493 C4.52182821,6.72631635 4.82921035,6.74881834 5.13456788,6.70998426 C5.42986196,6.67320681 5.71306797,6.58114223 5.97221695,6.4359681 C6.23339054,6.29079398 6.46038409,6.102733 6.64515874,5.87372082 C6.8380318,5.6365426 6.97665745,5.36663971 7.06097615,5.07217819 C7.14535439,4.77771668 7.16744637,4.47514961 7.12927667,4.17457869 C7.09110698,3.88423044 6.99874943,3.60610102 6.85208492,3.35053407 C6.70542041,3.09496713 6.5126069,2.87206436 6.27959909,2.68805616 C6.03849288,2.49993469 5.76332572,2.36086998 5.46398245,2.27908856 C5.16469872,2.19730713 4.85731658,2.17480515 4.55195905,2.21369971 C4.25666497,2.25047716 3.97345896,2.34248126 3.71430998,2.48765538 C3.45313639,2.6328295 3.22816744,2.82095097 3.04136819,3.04996315 C2.84849513,3.28714137 2.70992902,3.55704426 2.62555078,3.85150578 C2.54117254,4.1459068 2.51908056,4.44853436 2.55725026,4.74910528 C2.59339535,5.03945353 2.6877775,5.31752246 2.83444201,5.5731499 L2.83444201,5.5731499 Z" id="Fill-3" fill="#FFFFFF"></path>
                            <path d="M7.21166009,3.30350976 C7.21166009,3.30350976 7.42460052,2.83526272 7.07904869,1.6718131 C7.07904869,1.6718131 8.15381432,1.63914893 8.85087269,2.68397919 C9.46557741,3.60613731 9.4093054,4.50990672 9.3148637,4.81047764 C9.21845694,5.11104857 9.61623158,5.30322281 9.75884688,4.86770044 C9.90146219,4.43012144 10.2268871,3.3178457 9.6784583,2.30362298 C9.13008904,1.28946076 8.39283639,0.784436276 7.3161057,0.389804618 C6.28159392,0.00950890506 5.90793586,0.475699308 5.76329595,0.768104187 C5.61865604,1.06044858 5.37760938,1.29968343 4.8493075,1.31196275 C4.32094607,1.32424206 4.11604449,1.29151739 3.74441104,0.790545687 C3.42505993,0.361193218 2.76414666,0.798772221 2.3904886,1.11156197 C2.01683054,1.4244122 1.2093123,2.19933957 1.49454292,3.51818599 C1.49454292,3.51818599 3.0313345,2.00922196 4.88342798,1.96216135 C6.60701882,2.00510869 7.21166009,3.30350976 7.21166009,3.30350976" id="Fill-5" fill="#FFFFFF"></path>
                            <path d="M4.59417199,6.96148633 C4.59417199,6.96148633 4.87743755,7.39289543 6.05861384,7.73847033 C6.05861384,7.73847033 5.36756974,8.82624794 4.04979239,8.69335313 C2.93286741,8.58090367 2.36842044,8.11876605 2.16548392,7.87547841 C1.96260695,7.63418692 1.57894498,7.85708969 1.87423905,8.21083064 C2.16953313,8.56656773 2.94293087,9.4396691 4.10802945,9.53983924 C5.27312803,9.64006988 6.10482239,9.30471765 7.02684971,8.62996043 C7.91273193,7.9838146 7.71789381,7.42156732 7.54711273,7.14144175 C7.37639119,6.86331233 7.30404146,6.53413001 7.57926816,6.09044159 C7.85651947,5.64675318 7.99508557,5.49746579 8.62384341,5.46274498 C9.16423335,5.43407309 9.15018024,4.65097967 9.08586937,4.17045333 C9.02161804,3.69198361 8.79861415,2.60420601 7.5190065,2.12168351 C7.5190065,2.12168351 7.97096899,4.2092874 7.00475773,5.7633159 C6.03247267,7.17005315 4.59417199,6.96148633 4.59417199,6.96148633" id="Fill-7" fill="#FFFFFF"></path>
                            <g id="Group-11">
                                <mask id="mask-6" fill="white">
                                    <use xlink:href="#path-5"></use>
                                </mask>
                                <g id="Clip-10"></g>
                                <path d="M2.72395832,3.01520605 C2.72395832,3.01520605 2.2036953,3.05198349 1.32579239,3.90258287 C1.32579239,3.90258287 0.689055235,2.7820806 1.44232606,1.71069557 C2.07912276,0.8028129 2.76415261,0.53907991 3.07951406,0.479800477 C3.39291045,0.420460554 3.37885734,-0.0150618153 2.92082104,0.0667196074 C2.46278473,0.150557663 1.30977422,0.395962421 0.660889456,1.35078473 C0.0120642427,2.30566752 -0.0923813726,3.18693494 0.0642870503,4.30743721 C0.214941216,5.38093936 0.809578567,5.48522277 1.13899313,5.47294346 C1.47043229,5.46066415 1.7978818,5.55472488 2.05905539,6.00663983 C2.32016943,6.45849429 2.38846995,6.65066853 2.11526785,7.20892352 C1.88226005,7.68938938 2.58735727,8.05335301 3.04539357,8.22919516 C3.50337033,8.40503732 4.58010101,8.73627628 5.62670085,7.86523154 C5.62670085,7.86523154 3.54755427,7.24981424 2.62755156,5.66717434 C1.84813956,4.15409704 2.72395832,3.01520605 2.72395832,3.01520605" id="Fill-9" fill="#FFFFFF" mask="url(#mask-6)"></path>
                            </g>
                        </g>
                    </g>
                </g>
            </g>
        </g>
    </g>
</svg>