<?xml version="1.0" encoding="UTF-8" standalone="no"?>
<svg width="13px" height="20px" viewBox="0 0 13 20" version="1.1" xmlns="http://www.w3.org/2000/svg" xmlns:xlink="http://www.w3.org/1999/xlink">
    <!-- Generator: sketchtool 3.6.1 (26313) - http://www.bohemiancoding.com/sketch -->
    <title>2670DE89-795E-490F-B560-96D04E46AB2B</title>
    <desc>Created with sketchtool.</desc>
    <defs>
        <path id="path-1" d="M0,0.0529308358 L9.77028188,0.0529308358 L9.77028188,8.9444621 L0,8.9444621"></path>
    </defs>
    <g id="Web" stroke="none" stroke-width="1" fill="none" fill-rule="evenodd">
        <g id="01.01-Matchs---myBall" transform="translate(-1093.000000, -694.000000)">
            <g id="Group-19" transform="translate(1025.000000, 0.000000)">
                <g id="smartphone86-+-logo" transform="translate(68.000000, 694.000000)">
                    <g id="smartphone86" fill="#FFFFFF">
                        <g id="Capa_1">
                            <path d="M10.6635954,0 L1.57198014,0 C0.814539745,0 0.194603916,0.601769824 0.194603916,1.33827268 L0.194603916,18.4748431 C0.194603916,19.2113459 0.814539745,19.8136819 1.57198014,19.8136819 L10.6635954,19.8136819 C11.4210358,19.8136819 12.0409716,19.2124782 12.0409716,18.4754092 L12.0409716,1.33827268 C12.0409716,0.601769824 11.4210358,0 10.6635954,0 L10.6635954,0 Z M4.66350223,0.964643254 L7.57207333,0.964643254 C7.66413147,0.964643254 7.73871022,1.03710472 7.73871022,1.12711545 C7.73871022,1.21656007 7.66413147,1.28902153 7.57207333,1.28902153 L4.66350223,1.28902153 C4.57144409,1.28902153 4.49686534,1.21656007 4.49686534,1.12711545 C4.49686534,1.03710472 4.57144409,0.964643254 4.66350223,0.964643254 L4.66350223,0.964643254 Z M6.11778778,19.1445455 C5.73731965,19.1445455 5.42909967,18.8450759 5.42909967,18.4748431 C5.42909967,18.1046103 5.73731965,17.8057067 6.11778778,17.8057067 C6.49825592,17.8057067 6.80647589,18.1046103 6.80647589,18.4748431 C6.80647589,18.8450759 6.49825592,19.1445455 6.11778778,19.1445455 L6.11778778,19.1445455 Z M11.0825182,17.3369716 L1.15305734,17.3369716 L1.15305734,2.12232838 L11.0825182,2.12232838 L11.0825182,17.3369716 L11.0825182,17.3369716 Z" id="Shape"></path>
                        </g>
                    </g>
                    <g id="logo" transform="translate(1.223558, 4.755284)">
                        <path d="M6.95020312,4.17669017 C6.95020312,5.32486473 5.95958762,6.2567871 4.73894329,6.2567871 C3.51835723,6.2567871 2.52768346,5.32673288 2.52768346,4.17669017 C2.52768346,3.02664747 3.51835723,2.09659324 4.73894329,2.09659324 C5.95958762,2.09659324 6.95020312,3.02851561 6.95020312,4.17669017" id="Fill-1" fill="#FFFFFF"></path>
                        <path d="M2.58863994,4.19391109 C2.61025612,4.28765811 2.63973803,4.38146174 2.67708567,4.47135925 C2.73604949,4.61492353 2.81662949,4.75458168 2.91492195,4.88472926 C2.90507523,4.9995354 2.91882568,5.18708605 3.03681159,5.41098065 C3.03483059,5.40713114 3.0308686,5.40520638 3.02894586,5.40141348 C3.02108014,5.3918463 3.01321441,5.38035436 3.00534868,5.37078718 C2.91294095,5.25213154 2.83434195,5.12390871 2.77141613,4.98996822 C2.65546948,4.7412216 2.59062093,4.4694911 2.58863994,4.19583585 C2.58665894,4.19776061 2.58863994,4.19583585 2.58863994,4.19391109 L2.58863994,4.19391109 Z M3.18224015,3.19309372 C3.18614388,3.18930081 3.19010587,3.1854513 3.1940096,3.18160178 L3.97831,3.31746703 L4.1885871,4.10203222 L3.53211934,4.95934193 L3.01513714,4.78905748 C2.92867241,4.67232659 2.85986186,4.54795328 2.80684103,4.41973045 C2.74193422,4.25895658 2.70266385,4.09246504 2.69281712,3.92410536 C2.89330577,3.46289945 3.09967914,3.26198872 3.18224015,3.19309372 L3.18224015,3.19309372 Z M3.36501634,2.61900644 C3.53800407,2.48506595 3.73062699,2.36833505 3.94096236,2.29751529 C4.13947001,2.23054505 4.37142156,2.25160416 4.57779493,2.27266328 C4.59352639,2.27458803 4.79005304,2.29564715 4.79005304,2.30136481 L4.77239885,2.77400604 L4.02352336,3.18930081 L3.23531924,3.05343556 C3.25693542,2.93477991 3.29230206,2.7625141 3.31391824,2.6591999 C3.3316307,2.64583982 3.34928488,2.63242313 3.36501634,2.61900644 L3.36501634,2.61900644 Z M4.93553986,2.29944005 C5.12221978,2.24396174 5.52715907,2.32621683 5.69030008,2.36261739 C5.85932581,2.44107957 6.01658209,2.54054426 6.15612592,2.65727515 C6.27993829,2.7587212 6.3900002,2.87352733 6.48631166,2.9998254 C6.48240793,3.00367492 6.4430793,3.21415283 6.41948212,3.28876549 L5.63920198,3.32516606 L4.91584641,2.77213789 L4.93553986,2.29944005 Z M6.74972613,3.97765891 C6.74972613,4.05612109 6.7418604,4.16713432 6.71628222,4.29722529 C6.68680031,4.44458247 6.64158694,4.58429724 6.57871939,4.71438821 C6.5296023,4.8139095 6.47256121,4.90765652 6.40573166,4.99568588 C6.22097447,5.07607282 6.00085064,5.09328242 5.880942,5.09713193 L5.36792179,4.20540303 L5.67258762,3.45525703 L6.44506029,3.41891308 C6.58658512,3.59112228 6.68487758,3.79588253 6.74972613,3.97765891 L6.74972613,3.97765891 Z M6.71039749,4.76799837 C6.77524604,4.63592603 6.8224404,4.49241836 6.85390331,4.34506118 C6.86176904,4.38332989 6.86765377,4.41588094 6.8715575,4.44078957 C6.85780704,4.53453659 6.83817186,4.62828361 6.81067095,4.72208724 C6.72414795,5.00910257 6.57673839,5.26554823 6.38609647,5.47981904 C6.43719457,5.35544573 6.47063847,5.21958049 6.49225466,5.11626629 C6.5747574,5.00910257 6.64945267,4.89237168 6.71039749,4.76799837 L6.71039749,4.76799837 Z M3.64218126,5.04352177 L4.29672628,4.18819343 L5.23624369,4.26088134 L5.75905236,5.16981984 C5.6136238,5.4817438 5.29130378,5.70563841 5.29130378,5.70563841 C5.28932279,5.70563841 5.1045656,5.77074051 4.83328541,5.78602535 C4.67410639,5.79559252 4.51883111,5.7879501 4.36944056,5.76117333 C4.24755092,5.74011421 4.12764228,5.70756317 4.01367664,5.66357679 L3.64218126,5.04352177 Z M5.46819525,6.07304068 C5.44459807,6.08260786 5.42100089,6.09217504 5.3974037,6.09987407 C5.27161033,6.14193568 5.13795124,6.16684431 5.00627314,6.18212915 C4.72322349,6.2146802 4.43428911,6.19554584 4.15910519,6.12280133 C3.976329,6.07496544 3.79547554,6.00227753 3.63233453,5.91039866 C3.7109918,5.90275624 3.81120699,5.8740547 3.98809846,5.79751728 C4.10410337,5.84150365 4.22395374,5.87212995 4.34782438,5.89318906 C4.50898439,5.91996584 4.67801013,5.92953301 4.84901686,5.91804108 C5.00236941,5.9084739 5.13008551,5.88554664 5.21660851,5.86448753 C5.3188047,5.93338253 5.45444479,6.01756237 5.51929334,6.0596806 C5.50944662,6.05390632 5.47798371,6.06924778 5.46819525,6.07304068 L5.46819525,6.07304068 Z M2.77339713,5.21578758 C2.91690295,5.45496703 3.10556387,5.66357679 3.33361169,5.83578599 C3.56946698,6.01184471 3.83870791,6.14193568 4.13160428,6.21847311 C4.42444239,6.29501053 4.72520449,6.31606964 5.02398559,6.27972569 C5.31291997,6.24530649 5.59002662,6.15914528 5.84359436,6.02328003 C6.09914309,5.88741479 6.32124792,5.71141268 6.50204312,5.49708525 C6.69076231,5.27511541 6.8264024,5.02251927 6.90890514,4.74693926 C6.99146614,4.47135925 7.01308232,4.18819343 6.97573469,3.90689576 C6.93838705,3.63516526 6.84801858,3.37487009 6.70451276,3.13569065 C6.56100694,2.8965112 6.37234602,2.68790144 6.14435646,2.51569224 C5.90844291,2.33963352 5.63920198,2.20948594 5.34630561,2.13294851 C5.0534675,2.05641109 4.7527054,2.03535198 4.4539243,2.07175254 C4.16498992,2.10617174 3.88788327,2.19227634 3.63431553,2.32814159 C3.37876679,2.46400683 3.15864296,2.64006555 2.97586677,2.85439298 C2.78714758,3.07636282 2.65156575,3.32895896 2.56900475,3.60453897 C2.48644375,3.88006237 2.46482756,4.1632848 2.5021752,4.44458247 C2.53754184,4.71631297 2.62989131,4.97655153 2.77339713,5.21578758 L2.77339713,5.21578758 Z" id="Fill-3" fill="#FFFFFF"></path>
                        <path d="M7.05634382,3.09168163 C7.05634382,3.09168163 7.2646982,2.6534596 6.92658846,1.56461286 C6.92658846,1.56461286 7.97820705,1.53404318 8.66025299,2.51187669 C9.26171892,3.37490406 9.20665883,4.22072183 9.1142511,4.50201951 C9.01992064,4.78331718 9.40912847,4.9631688 9.5486723,4.55557306 C9.68821613,4.14605256 10.0066324,3.10509832 9.47001503,2.15590974 C8.93345591,1.20677777 8.21208133,0.734136541 7.15854001,0.364809511 C6.14630832,0.00889917368 5.78069767,0.445196448 5.63917285,0.7188517 C5.49764803,0.992450342 5.26179274,1.21634495 4.74486881,1.22783688 C4.22788661,1.23932882 4.02739796,1.20870253 3.66376831,0.739854203 C3.35129501,0.338032735 2.70461571,0.747553234 2.33900506,1.04028623 C1.97339441,1.33307584 1.18326755,2.05831321 1.46235521,3.29259236 C1.46235521,3.29259236 2.96604918,1.88038634 4.77825445,1.83634336 C6.46472461,1.87653683 7.05634382,3.09168163 7.05634382,3.09168163" id="Fill-5" fill="#FFFFFF"></path>
                        <path d="M4.49522811,6.51510091 C4.49522811,6.51510091 4.77239302,6.91884713 5.92813053,7.24226303 C5.92813053,7.24226303 5.25196932,8.26029 3.96257272,8.13591669 C2.86970276,8.03067774 2.31741218,7.59817337 2.11884627,7.37048586 C1.92033863,7.14466649 1.54493951,7.35327626 1.83387389,7.68433458 C2.12280827,8.01726104 2.87954949,8.83437728 4.01955554,8.9281243 C5.15956159,9.02192794 5.9733439,8.70807922 6.87551367,8.07658887 C7.7423168,7.4718753 7.55167488,6.94568052 7.38457188,6.6835172 C7.21752714,6.42322203 7.14673559,6.11514758 7.41603479,5.69990942 C7.68731498,5.28467126 7.82289681,5.1449565 8.4381132,5.11246206 C8.96686486,5.08562867 8.9531144,4.35274889 8.89018858,3.90303492 C8.82732103,3.45524571 8.60911993,2.43721874 7.35707096,1.98563662 C7.35707096,1.98563662 7.79929962,3.93937887 6.85389749,5.39375973 C5.90255235,6.71029398 4.49522811,6.51510091 4.49522811,6.51510091" id="Fill-7" fill="#FFFFFF"></path>
                        <g id="Group-11">
                            <mask id="mask-2" fill="white">
                                <use xlink:href="#path-1"></use>
                            </mask>
                            <g id="Clip-10"></g>
                            <path d="M2.6652929,2.82186457 C2.6652929,2.82186457 2.1562347,2.85628377 1.29723903,3.65234089 C1.29723903,3.65234089 0.674215172,2.60368763 1.41126294,1.60100211 C2.03434506,0.751334816 2.70462154,0.504512951 3.0131911,0.449034642 C3.31983793,0.393499722 3.30608748,-0.0140960194 2.85791582,0.0624414031 C2.40974417,0.140903583 1.28156584,0.370572461 0.646655995,1.26416951 C0.0118044172,2.15782318 -0.0903917711,2.98258184 0.0629025113,4.0312351 C0.210312065,5.03590199 0.792142815,5.13349853 1.11446283,5.12200659 C1.43876385,5.11051466 1.75916114,5.19854402 2.01470987,5.62148121 C2.27020034,6.04436179 2.33702989,6.22421341 2.0697117,6.7466719 C1.84172214,7.19632925 2.53163381,7.53695475 2.97980546,7.70152153 C3.42791885,7.86608831 4.48146017,8.17608752 5.50551958,7.36089604 C5.50551958,7.36089604 3.47115122,6.78494061 2.57096244,5.30378297 C1.8083365,3.88772744 2.6652929,2.82186457 2.6652929,2.82186457" id="Fill-9" fill="#FFFFFF" mask="url(#mask-2)"></path>
                        </g>
                    </g>
                </g>
            </g>
        </g>
    </g>
</svg>