<?xml version="1.0" encoding="UTF-8" standalone="no"?>
<svg width="25px" height="18px" viewBox="0 0 25 18" version="1.1" xmlns="http://www.w3.org/2000/svg" xmlns:xlink="http://www.w3.org/1999/xlink">
    <!-- Generator: sketchtool 3.7.2 (28276) - http://www.bohemiancoding.com/sketch -->
    <title>8A10D211-4530-413B-9ED3-F4FC7943AB06</title>
    <desc>Created with sketchtool.</desc>
    <defs></defs>
    <g id="Web" stroke="none" stroke-width="1" fill="none" fill-rule="evenodd">
        <g id="01.00-Matchs---myBall" transform="translate(-1089.000000, -398.000000)" fill="#FFFFFF">
            <g id="Group-19" transform="translate(1025.000000, 0.000000)">
                <g id="close-envelope" transform="translate(64.000000, 398.000000)">
                    <g id="Capa_1">
                        <g id="Group">
                            <path d="M12.5,12.5 L9.40714286,9.79285714 L0.564285714,17.3732143 C0.885714286,17.6714286 1.31964286,17.8571429 1.79821429,17.8571429 L23.2017857,17.8571429 C23.6785714,17.8571429 24.1107143,17.6714286 24.4303571,17.3732143 L15.5928571,9.79285714 L12.5,12.5 L12.5,12.5 Z" id="Shape"></path>
                            <path d="M24.4357143,0.483928571 C24.1142857,0.183928571 23.6821429,0 23.2017857,0 L1.79821429,0 C1.32142857,0 0.889285714,0.185714286 0.567857143,0.4875 L12.5,10.7142857 L24.4357143,0.483928571 L24.4357143,0.483928571 Z" id="Shape"></path>
                            <polygon id="Shape" points="0 1.56785714 0 16.4035714 8.63035714 9.06964286"></polygon>
                            <polygon id="Shape" points="16.3696429 9.06964286 25 16.4035714 25 1.5625"></polygon>
                        </g>
                    </g>
                </g>
            </g>
        </g>
    </g>
</svg>