<?xml version="1.0" encoding="UTF-8" standalone="no"?>
<svg width="25px" height="21px" viewBox="0 0 25 21" version="1.1" xmlns="http://www.w3.org/2000/svg" xmlns:xlink="http://www.w3.org/1999/xlink">
    <!-- Generator: sketchtool 3.6.1 (26313) - http://www.bohemiancoding.com/sketch -->
    <title>696557D5-C64C-4B0C-901B-C00618AC873E</title>
    <desc>Created with sketchtool.</desc>
    <defs></defs>
    <g id="Web" stroke="none" stroke-width="1" fill="none" fill-rule="evenodd">
        <g id="01.00-Matchs---weball" transform="translate(-1006.000000, -613.000000)" fill="#E9E9E9">
            <g id="Tableau" transform="translate(65.000000, 369.000000)">
                <g id="Group-21" transform="translate(941.000000, 100.000000)">
                    <g id="Group-19" transform="translate(0.000000, 144.000000)">
                        <g id="Joueurs">
                            <g id="Shape">
                                <path d="M14.9203772,3.67962963 C16.0635889,4.39660494 16.8652255,5.60987654 17.011174,7.01820988 C17.4774068,7.23611111 17.9948605,7.36141975 18.5434787,7.36141975 C20.5463361,7.36141975 22.1696657,5.73765432 22.1696657,3.7345679 C22.1696657,1.73117284 20.5463361,0.107407407 18.5434787,0.107407407 C16.559752,0.108024691 14.950616,1.70277778 14.9203772,3.67962963 L14.9203772,3.67962963 Z M12.5447804,11.1061728 C14.5476378,11.1061728 16.1709674,9.48209877 16.1709674,7.47901235 C16.1709674,5.47592593 14.5473292,3.85216049 12.5447804,3.85216049 C10.5422316,3.85216049 8.91797628,5.47623457 8.91797628,7.47932099 C8.91797628,9.48240741 10.5422316,11.1061728 12.5447804,11.1061728 L12.5447804,11.1061728 Z M14.0829477,11.3533951 L11.005996,11.3533951 C8.4458808,11.3533951 6.3631066,13.437037 6.3631066,15.9978395 L6.3631066,19.7617284 L6.37267193,19.820679 L6.63186161,19.9018519 C9.07503289,20.6654321 11.1976112,20.9200617 12.9446731,20.9200617 C16.3570286,20.9200617 18.3348927,19.9469136 18.4567736,19.8848765 L18.6989925,19.7623457 L18.7249114,19.7623457 L18.7249114,15.9978395 C18.7258371,13.437037 16.6430629,11.3533951 14.0829477,11.3533951 L14.0829477,11.3533951 Z M20.0822631,7.60895062 L17.0290704,7.60895062 C16.9960546,8.8308642 16.4745896,9.93117284 15.6498111,10.7225309 C17.9254347,11.3993827 19.5904198,13.5101852 19.5904198,16.0033951 L19.5904198,17.1632716 C22.6050426,17.0527778 24.3422306,16.1981481 24.456706,16.1407407 L24.698925,16.0179012 L24.7248439,16.0179012 L24.7248439,12.2527778 C24.7248439,9.69228395 22.6420697,7.60895062 20.0822631,7.60895062 L20.0822631,7.60895062 Z M6.18198238,7.36203704 C6.89135985,7.36203704 7.55136785,7.15493827 8.11047701,6.80216049 C8.28820708,5.64259259 8.90964519,4.62932099 9.79736983,3.93919753 C9.80107254,3.8712963 9.80755229,3.80401235 9.80755229,3.73549383 C9.80755229,1.73209877 8.18391409,0.108333333 6.18198238,0.108333333 C4.17881644,0.108333333 2.55579536,1.73209877 2.55579536,3.73549383 C2.55579536,5.73796296 4.17881644,7.36203704 6.18198238,7.36203704 L6.18198238,7.36203704 Z M9.43851555,10.7225309 C8.61774824,9.93518519 8.09813465,8.84074074 8.06018187,7.62623457 C7.94694067,7.61790123 7.8349337,7.60895062 7.71953258,7.60895062 L4.64288939,7.60895062 C2.0827742,7.60895062 0,9.69228395 0,12.2527778 L0,16.017284 L0.00956533336,16.0753086 L0.268755011,16.1570988 C2.22872267,16.7691358 3.97794444,17.0512346 5.49728965,17.1401235 L5.49728965,16.0033951 C5.49790677,13.5101852 7.16227477,11.4 9.43851555,10.7225309 L9.43851555,10.7225309 Z"></path>
                            </g>
                        </g>
                    </g>
                </g>
            </g>
        </g>
    </g>
</svg>