<?xml version="1.0" encoding="UTF-8" standalone="no"?>
<svg width="245px" height="158px" viewBox="0 0 245 158" version="1.1" xmlns="http://www.w3.org/2000/svg" xmlns:xlink="http://www.w3.org/1999/xlink" xmlns:sketch="http://www.bohemiancoding.com/sketch/ns">
    <!-- Generator: Sketch 3.4.4 (17249) - http://www.bohemiancoding.com/sketch -->
    <title>logo - black</title>
    <desc>Created with Sketch.</desc>
    <defs>
        <path id="path-1" d="M0,0.935 L167.688,0.935 L167.688,158 L0,158"></path>
    </defs>
    <g id="Web---Manager" stroke="none" stroke-width="1" fill-rule="evenodd" sketch:type="MSPage">
        <g id="00.00-Login-Page" sketch:type="MSArtboardGroup" transform="translate(-597.000000, -246.000000)">
            <g id="logo---black" sketch:type="MSLayerGroup" transform="translate(597.000000, 246.000000)">
                <text id="myBall" sketch:type="MSTextLayer" font-family="Avenir" font-size="38" font-weight="260" sketch:alignment="middle" line-spacing="51.0944528" letter-spacing="0.59375">
                    <tspan x="133" y="119">myBall</tspan>
                </text>
                <g id="Page-1">
                    <path d="M119.2868,73.7794 C119.2868,94.0614 102.2848,110.5234 81.3348,110.5234 C60.3858,110.5234 43.3828,94.0944 43.3828,73.7794 C43.3828,53.4644 60.3858,37.0354 81.3348,37.0354 C102.2848,37.0354 119.2868,53.4974 119.2868,73.7794" id="Fill-1" sketch:type="MSShapeGroup"></path>
                    <path d="M44.429,74.0836 C44.8,75.7396 45.306,77.3966 45.947,78.9846 C46.959,81.5206 48.342,83.9876 50.029,86.2866 C49.86,88.3146 50.096,91.6276 52.121,95.5826 C52.087,95.5146 52.019,95.4806 51.986,95.4136 C51.851,95.2446 51.716,95.0416 51.581,94.8726 C49.995,92.7766 48.646,90.5116 47.566,88.1456 C45.576,83.7516 44.463,78.9516 44.429,74.1176 C44.395,74.1516 44.429,74.1176 44.429,74.0836 L44.429,74.0836 Z M54.617,56.4046 C54.684,56.3376 54.752,56.2696 54.819,56.2016 L68.28,58.6016 L71.889,72.4606 L60.622,87.6046 L51.749,84.5966 C50.265,82.5346 49.084,80.3376 48.174,78.0726 C47.06,75.2326 46.386,72.2916 46.217,69.3176 C49.658,61.1706 53.2,57.6216 54.617,56.4046 L54.617,56.4046 Z M57.754,46.2636 C60.723,43.8976 64.029,41.8356 67.639,40.5846 C71.046,39.4016 75.027,39.7736 78.569,40.1456 C78.839,40.1796 82.212,40.5516 82.212,40.6526 L81.909,49.0016 L69.056,56.3376 L55.528,53.9376 C55.899,51.8416 56.506,48.7986 56.877,46.9736 C57.181,46.7376 57.484,46.5006 57.754,46.2636 L57.754,46.2636 Z M84.709,40.6186 C87.913,39.6386 94.863,41.0916 97.663,41.7346 C100.564,43.1206 103.263,44.8776 105.658,46.9396 C107.783,48.7316 109.672,50.7596 111.325,52.9906 C111.258,53.0586 110.583,56.7766 110.178,58.0946 L96.786,58.7376 L84.371,48.9686 L84.709,40.6186 Z M115.846,70.2636 C115.846,71.6496 115.711,73.6106 115.272,75.9086 C114.766,78.5116 113.99,80.9796 112.911,83.2776 C112.068,85.0356 111.089,86.6916 109.942,88.2466 C106.771,89.6666 102.993,89.9706 100.935,90.0386 L92.13,74.2866 L97.359,61.0356 L110.617,60.3936 C113.046,63.4356 114.733,67.0526 115.846,70.2636 L115.846,70.2636 Z M115.171,84.2246 C116.284,81.8916 117.094,79.3566 117.634,76.7536 C117.769,77.4296 117.87,78.0046 117.937,78.4446 C117.701,80.1006 117.364,81.7566 116.892,83.4136 C115.407,88.4836 112.877,93.0136 109.605,96.7986 C110.482,94.6016 111.056,92.2016 111.427,90.3766 C112.843,88.4836 114.125,86.4216 115.171,84.2246 L115.171,84.2246 Z M62.511,89.0916 L73.745,73.9826 L89.87,75.2666 L98.843,91.3226 C96.347,96.8326 90.815,100.7876 90.815,100.7876 C90.781,100.7876 87.61,101.9376 82.954,102.2076 C80.222,102.3766 77.557,102.2416 74.993,101.7686 C72.901,101.3966 70.843,100.8216 68.887,100.0446 L62.511,89.0916 Z M93.851,107.2776 C93.446,107.4466 93.041,107.6156 92.636,107.7516 C90.477,108.4946 88.183,108.9346 85.923,109.2046 C81.065,109.7796 76.106,109.4416 71.383,108.1566 C68.246,107.3116 65.142,106.0276 62.342,104.4046 C63.692,104.2696 65.412,103.7626 68.448,102.4106 C70.439,103.1876 72.496,103.7286 74.622,104.1006 C77.388,104.5736 80.289,104.7426 83.224,104.5396 C85.856,104.3706 88.048,103.9656 89.533,103.5936 C91.287,104.8106 93.615,106.2976 94.728,107.0416 C94.559,106.9396 94.019,107.2106 93.851,107.2776 L93.851,107.2776 Z M47.6,92.1346 C50.063,96.3596 53.301,100.0446 57.215,103.0866 C61.263,106.1966 65.884,108.4946 70.911,109.8466 C75.937,111.1986 81.099,111.5706 86.227,110.9286 C91.186,110.3206 95.942,108.7986 100.294,106.3986 C104.68,103.9986 108.492,100.8896 111.595,97.1036 C114.834,93.1826 117.162,88.7206 118.578,83.8526 C119.995,78.9846 120.366,73.9826 119.725,69.0136 C119.084,64.2136 117.533,59.6156 115.07,55.3906 C112.607,51.1656 109.369,47.4806 105.456,44.4386 C101.407,41.3286 96.786,39.0296 91.759,37.6776 C86.733,36.3256 81.571,35.9536 76.443,36.5966 C71.484,37.2046 66.728,38.7256 62.376,41.1256 C57.99,43.5256 54.212,46.6356 51.075,50.4216 C47.836,54.3426 45.509,58.8046 44.092,63.6726 C42.675,68.5396 42.304,73.5426 42.945,78.5116 C43.552,83.3116 45.137,87.9086 47.6,92.1346 L47.6,92.1346 Z" id="Fill-3" sketch:type="MSShapeGroup"></path>
                    <path d="M121.1085,54.6132 C121.1085,54.6132 124.6845,46.8722 118.8815,27.6382 C118.8815,27.6382 136.9305,27.0982 148.6365,44.3712 C158.9595,59.6162 158.0145,74.5572 156.4285,79.5262 C154.8095,84.4952 161.4895,87.6722 163.8845,80.4722 C166.2795,73.2382 171.7445,54.8502 162.5345,38.0832 C153.3255,21.3172 140.9445,12.9682 122.8625,6.4442 C105.4895,0.1572 99.2145,7.8642 96.7855,12.6982 C94.3565,17.5312 90.3085,21.4862 81.4365,21.6892 C72.5635,21.8922 69.1225,21.3512 62.8815,13.0692 C57.5185,5.9712 46.4195,13.2052 40.1445,18.3762 C33.8695,23.5482 20.3085,36.3592 25.0985,58.1622 C25.0985,58.1622 50.9065,33.2162 82.0095,32.4382 C110.9545,33.1482 121.1085,54.6132 121.1085,54.6132" id="Fill-5" sketch:type="MSShapeGroup"></path>
                    <path d="M77.1519,115.0864 C77.1519,115.0864 81.9089,122.2184 101.7449,127.9314 C101.7449,127.9314 90.1399,145.9144 68.0099,143.7174 C49.2529,141.8584 39.7739,134.2184 36.3659,130.1964 C32.9589,126.2074 26.5159,129.8924 31.4749,135.7404 C36.4339,141.6214 49.4219,156.0554 68.9879,157.7114 C88.5539,159.3684 102.5209,153.8244 118.0049,142.6694 C132.8819,131.9874 129.6099,122.6924 126.7419,118.0614 C123.8749,113.4634 122.6599,108.0214 127.2819,100.6864 C131.9379,93.3514 134.2649,90.8834 144.8239,90.3094 C153.8989,89.8354 153.6629,76.8894 152.5829,68.9454 C151.5039,61.0354 147.7589,43.0524 126.2699,35.0754 C126.2699,35.0754 133.8599,69.5874 117.6339,95.2784 C101.3059,118.5344 77.1519,115.0864 77.1519,115.0864" id="Fill-7" sketch:type="MSShapeGroup"></path>
                    <g id="Group-11">
                        <mask id="mask-2" sketch:name="Clip 10">
                            <use xlink:href="#path-1"></use>
                        </mask>
                        <g id="Clip-10"></g>
                        <path d="M45.7446,49.847 C45.7446,49.847 37.0076,50.455 22.2646,64.517 C22.2646,64.517 11.5716,45.993 24.2216,28.281 C34.9156,13.272 46.4196,8.912 51.7156,7.932 C56.9786,6.951 56.7426,-0.249 49.0506,1.103 C41.3586,2.489 21.9956,6.546 11.0986,22.331 C0.2026,38.117 -1.5514,52.686 1.0796,71.21 C3.6096,88.957 13.5956,90.681 19.1276,90.478 C24.6936,90.275 30.1926,91.83 34.5786,99.301 C38.9636,106.771 40.1106,109.948 35.5226,119.177 C31.6096,127.12 43.4506,133.137 51.1426,136.044 C58.8336,138.951 76.9156,144.427 94.4916,130.027 C94.4916,130.027 59.5756,119.853 44.1256,93.689 C31.0366,68.675 45.7446,49.847 45.7446,49.847" id="Fill-9" sketch:type="MSShapeGroup"></path>
                    </g>
                </g>
            </g>
        </g>
    </g>
</svg>