<?xml version="1.0" encoding="UTF-8" standalone="no"?>
<svg width="30px" height="29px" viewBox="0 0 30 29" version="1.1" xmlns="http://www.w3.org/2000/svg" xmlns:xlink="http://www.w3.org/1999/xlink">
    <!-- Generator: Sketch 3.6.1 (26313) - http://www.bohemiancoding.com/sketch -->
    <title>logo</title>
    <desc>Created with Sketch.</desc>
    <defs>
        <path id="path-1" d="M0,0.166964286 L29.9442857,0.166964286 L29.9442857,28.2142857 L0,28.2142857"></path>
    </defs>
    <g id="Web" stroke="none" stroke-width="1" fill-rule="evenodd">
        <g id="03.00-Résumé" transform="translate(-40.000000, -19.000000)">
            <g id="header">
                <g id="logo" transform="translate(40.000000, 19.000000)">
                    <path d="M21.3012143,13.1748929 C21.3012143,16.7966786 18.2651429,19.7363214 14.5240714,19.7363214 C10.7831786,19.7363214 7.74692857,16.8025714 7.74692857,13.1748929 C7.74692857,9.54721429 10.7831786,6.61346429 14.5240714,6.61346429 C18.2651429,6.61346429 21.3012143,9.55310714 21.3012143,13.1748929" id="Fill-1"></path>
                    <path d="M7.93375,13.2292143 C8,13.5249286 8.09035714,13.8208214 8.20482143,14.1043929 C8.38553571,14.55725 8.6325,14.9977857 8.93375,15.4083214 C8.90357143,15.7704643 8.94571429,16.3620714 9.30732143,17.0683214 C9.30125,17.0561786 9.28910714,17.0501071 9.28321429,17.0381429 C9.25910714,17.0079643 9.235,16.9717143 9.21089286,16.9415357 C8.92767857,16.56725 8.68678571,16.1627857 8.49392857,15.7402857 C8.13857143,14.9556429 7.93982143,14.0985 7.93375,13.2352857 C7.92767857,13.2413571 7.93375,13.2352857 7.93375,13.2292143 L7.93375,13.2292143 Z M9.75303571,10.07225 C9.765,10.0602857 9.77714286,10.0481429 9.78910714,10.036 L12.1928571,10.4645714 L12.8373214,12.9393929 L10.8253571,15.6436786 L9.24089286,15.1065357 C8.97589286,14.7383214 8.765,14.346 8.6025,13.9415357 C8.40357143,13.4343929 8.28321429,12.9092143 8.25303571,12.3781429 C8.8675,10.9233214 9.5,10.2895714 9.75303571,10.07225 L9.75303571,10.07225 Z M10.3132143,8.26135714 C10.8433929,7.83885714 11.43375,7.47064286 12.0783929,7.24725 C12.6867857,7.036 13.3976786,7.10242857 14.0301786,7.16885714 C14.0783929,7.17492857 14.6807143,7.24135714 14.6807143,7.25939286 L14.6266071,8.75028571 L12.3314286,10.0602857 L9.91571429,9.63171429 C9.98196429,9.25742857 10.0903571,8.71403571 10.1566071,8.38814286 C10.2108929,8.346 10.265,8.30367857 10.3132143,8.26135714 L10.3132143,8.26135714 Z M15.1266071,7.25332143 C15.69875,7.07832143 16.9398214,7.33778571 17.4398214,7.45260714 C17.9578571,7.70010714 18.4398214,8.01385714 18.8675,8.38207143 C19.2469643,8.70207143 19.5842857,9.06421429 19.8794643,9.46260714 C19.8675,9.47475 19.7469643,10.1386786 19.6746429,10.3740357 L17.2832143,10.4888571 L15.06625,8.74439286 L15.1266071,7.25332143 Z M20.6867857,12.5470714 C20.6867857,12.7945714 20.6626786,13.14475 20.5842857,13.5551071 C20.4939286,14.0199286 20.3553571,14.4606429 20.1626786,14.871 C20.0121429,15.1849286 19.8373214,15.4806429 19.6325,15.7583214 C19.06625,16.0118929 18.3916071,16.0661786 18.0241071,16.0783214 L16.4517857,13.2654643 L17.3855357,10.8992143 L19.7530357,10.7845714 C20.1867857,11.3277857 20.4880357,11.9736786 20.6867857,12.5470714 L20.6867857,12.5470714 Z M20.56625,15.0401071 C20.765,14.6235 20.9096429,14.1708214 21.0060714,13.706 C21.0301786,13.8267143 21.0482143,13.9293929 21.0601786,14.0079643 C21.0180357,14.3036786 20.9578571,14.5993929 20.8735714,14.8952857 C20.6083929,15.8006429 20.1566071,16.6095714 19.5723214,17.2854643 C19.7289286,16.8931429 19.8314286,16.4645714 19.8976786,16.1386786 C20.1505357,15.8006429 20.3794643,15.4324286 20.56625,15.0401071 L20.56625,15.0401071 Z M11.1626786,15.9092143 L13.16875,13.2111786 L16.0482143,13.4404643 L17.6505357,16.3076071 C17.2048214,17.2915357 16.2169643,17.9977857 16.2169643,17.9977857 C16.2108929,17.9977857 15.6446429,18.2031429 14.8132143,18.2513571 C14.3253571,18.2815357 13.8494643,18.2574286 13.3916071,18.1729643 C13.0180357,18.1065357 12.6505357,18.0038571 12.30125,17.8651071 L11.1626786,15.9092143 Z M16.7591071,19.1567143 C16.6867857,19.1868929 16.6144643,19.2170714 16.5421429,19.2413571 C16.1566071,19.3740357 15.7469643,19.4526071 15.3433929,19.5008214 C14.4758929,19.6035 13.5903571,19.5431429 12.7469643,19.3136786 C12.1867857,19.1627857 11.6325,18.9335 11.1325,18.6436786 C11.3735714,18.6195714 11.6807143,18.5290357 12.2228571,18.2876071 C12.5783929,18.4263571 12.9457143,18.5229643 13.3253571,18.5893929 C13.8192857,18.6738571 14.3373214,18.7040357 14.8614286,18.6677857 C15.3314286,18.6376071 15.7228571,18.5652857 15.9880357,18.4988571 C16.30125,18.7161786 16.7169643,18.9817143 16.9157143,19.1145714 C16.8855357,19.0963571 16.7891071,19.14475 16.7591071,19.1567143 L16.7591071,19.1567143 Z M8.5,16.4526071 C8.93982143,17.2070714 9.51803571,17.8651071 10.2169643,18.4083214 C10.9398214,18.9636786 11.765,19.3740357 12.6626786,19.6154643 C13.5601786,19.8568929 14.4819643,19.9233214 15.3976786,19.8086786 C16.2832143,19.7001071 17.1325,19.4283214 17.9096429,18.99975 C18.6928571,18.5711786 19.3735714,18.016 19.9276786,17.3399286 C20.5060714,16.63975 20.9217857,15.8429643 21.1746429,14.9736786 C21.4276786,14.1043929 21.4939286,13.2111786 21.3794643,12.3238571 C21.265,11.4667143 20.9880357,10.6456429 20.5482143,9.89117857 C20.1083929,9.13671429 19.5301786,8.47867857 18.8314286,7.93546429 C18.1083929,7.38010714 17.2832143,6.96957143 16.3855357,6.72814286 C15.4880357,6.48671429 14.56625,6.42028571 13.6505357,6.53510714 C12.765,6.64367857 11.9157143,6.91528571 11.1385714,7.34385714 C10.3553571,7.77242857 9.68071429,8.32778571 9.12053571,9.00385714 C8.54214286,9.70403571 8.12660714,10.5008214 7.87357143,11.3701071 C7.62053571,12.2392143 7.55428571,13.1326071 7.66875,14.0199286 C7.77714286,14.8770714 8.06017857,15.6979643 8.5,16.4526071 L8.5,16.4526071 Z" id="Fill-3"></path>
                    <path d="M21.6265179,9.75235714 C21.6265179,9.75235714 22.2650893,8.37003571 21.2288393,4.93539286 C21.2288393,4.93539286 24.451875,4.83896429 26.5422321,7.92342857 C28.385625,10.64575 28.216875,13.3137857 27.9336607,14.2011071 C27.6445536,15.0884286 28.8374107,15.65575 29.2650893,14.3700357 C29.6927679,13.07825 30.6686607,9.79467857 29.0240179,6.80057143 C27.3795536,3.80664286 25.1686607,2.31575 21.9397321,1.15075 C18.8374107,0.0280714286 17.716875,1.40432143 17.283125,2.26753571 C16.849375,3.13057143 16.1265179,3.83682143 14.5422321,3.87307143 C12.9577679,3.90932143 12.3433036,3.81271429 11.2288393,2.33378571 C10.2711607,1.06628571 8.28919643,2.35807143 7.16866071,3.28146429 C6.048125,4.20503571 3.62651786,6.49271429 4.481875,10.3861071 C4.481875,10.3861071 9.09044643,5.93146429 14.6445536,5.79253571 C19.8133036,5.91932143 21.6265179,9.75235714 21.6265179,9.75235714" id="Fill-5"></path>
                    <path d="M13.777125,20.5511429 C13.777125,20.5511429 14.6265893,21.8247143 18.1687321,22.8448929 C18.1687321,22.8448929 16.0964107,26.0561429 12.144625,25.6638214 C8.79516071,25.3318571 7.10248214,23.9675714 6.49391071,23.2493571 C5.88551786,22.5370357 4.73498214,23.1950714 5.62051786,24.2393571 C6.50605357,25.2895357 8.82533929,27.8670357 12.3192679,28.16275 C15.8131964,28.4586429 18.3073036,27.4686429 21.0723036,25.4766786 C23.7289107,23.5691786 23.144625,21.9093571 22.6324821,21.0823929 C22.1205179,20.2613214 21.9035536,19.2895357 22.7289107,17.9797143 C23.5603393,16.6698929 23.975875,16.2291786 25.8614107,16.1266786 C27.4819464,16.0420357 27.4398036,13.73025 27.2469464,12.3116786 C27.0542679,10.8991786 26.3855179,7.68792857 22.5481964,6.26346429 C22.5481964,6.26346429 23.9035536,12.4263214 21.0060536,17.014 C18.0903393,21.1668571 13.777125,20.5511429 13.777125,20.5511429" id="Fill-7"></path>
                    <g id="Group-11">
                        <mask id="mask-2">
                            <use xlink:href="#path-1"></use>
                        </mask>
                        <g id="Clip-10"></g>
                        <path d="M8.16867857,8.90125 C8.16867857,8.90125 6.6085,9.00982143 3.97582143,11.5208929 C3.97582143,11.5208929 2.06635714,8.21303571 4.32528571,5.05017857 C6.23492857,2.37 8.28921429,1.59142857 9.23492857,1.41642857 C10.17475,1.24125 10.1326071,-0.0444642857 8.75903571,0.196964286 C7.38546429,0.444464286 3.92778571,1.16892857 1.98189286,3.98767857 C0.0361785714,6.80660714 -0.277035714,9.40821429 0.192785714,12.7160714 C0.644571429,15.8851786 2.42778571,16.1930357 3.41564286,16.1567857 C4.40957143,16.1205357 5.39153571,16.3982143 6.17475,17.7323214 C6.95778571,19.06625 7.16260714,19.6335714 6.34332143,21.2816071 C5.64457143,22.7 7.75903571,23.7744643 9.13260714,24.2935714 C10.506,24.8126786 13.7349286,25.7905357 16.8735,23.2191071 C16.8735,23.2191071 10.6385,21.4023214 7.87957143,16.7301786 C5.54225,12.2633929 8.16867857,8.90125 8.16867857,8.90125" id="Fill-9"></path>
                    </g>
                </g>
            </g>
        </g>
    </g>
</svg>