<?xml version="1.0" encoding="UTF-8" standalone="no"?>
<svg width="23px" height="22px" viewBox="0 0 23 22" version="1.1" xmlns="http://www.w3.org/2000/svg" xmlns:xlink="http://www.w3.org/1999/xlink">
    <!-- Generator: sketchtool 3.7.2 (28276) - http://www.bohemiancoding.com/sketch -->
    <title>873DD312-0E89-493D-9003-40D86224E72D</title>
    <desc>Created with sketchtool.</desc>
    <defs>
        <path d="M11.5,12.755018 C7.61875,12.755018 0,14.6863886 0,18.6976968 L0,21.6690362 L23,21.6690362 L23,18.6976968 C23,14.6863886 15.38125,12.755018 11.5,12.755018 L11.5,12.755018 Z M11.5,10.4359238 C14.34625,10.4359238 16.675,8.08784094 16.675,5.2179619 C16.675,2.34808285 14.34625,0 11.5,0 C8.65375,0 6.325,2.34808285 6.325,5.2179619 C6.325,8.08784094 8.65375,10.4359238 11.5,10.4359238 L11.5,10.4359238 Z" id="path-1"></path>
        <mask id="mask-2" maskContentUnits="userSpaceOnUse" maskUnits="objectBoundingBox" x="0" y="0" width="23" height="21.6690362" fill="white">
            <use xlink:href="#path-1"></use>
        </mask>
    </defs>
    <g id="Web" stroke="none" stroke-width="1" fill="none" fill-rule="evenodd">
        <g id="01.00-Matchs---myBall" transform="translate(-1090.000000, -263.000000)" stroke="#FFFFFF" stroke-width="2" fill="#FFFFFF">
            <g id="Group-19" transform="translate(1025.000000, 0.000000)">
                <g id="Group-26" transform="translate(65.000000, 263.000000)">
                    <use id="Name" mask="url(#mask-2)" xlink:href="#path-1"></use>
                </g>
            </g>
        </g>
    </g>
</svg>