<?xml version="1.0" encoding="UTF-8" standalone="no"?>
<svg width="22px" height="21px" viewBox="0 0 22 21" version="1.1" xmlns="http://www.w3.org/2000/svg" xmlns:xlink="http://www.w3.org/1999/xlink">
    <!-- Generator: sketchtool 3.6.1 (26313) - http://www.bohemiancoding.com/sketch -->
    <title>1F2F1736-F4AC-46B2-91AC-6CF2D484732F</title>
    <desc>Created with sketchtool.</desc>
    <defs></defs>
    <g id="Web" stroke="none" stroke-width="1" fill="none" fill-rule="evenodd">
        <g id="01.00-Matchs---weball" transform="translate(-1006.000000, -470.000000)" stroke="#E8E8E8">
            <g id="Tableau" transform="translate(65.000000, 369.000000)">
                <g id="Group-21" transform="translate(941.000000, 100.000000)">
                    <g id="Group-17">
                        <g id="Group-12" transform="translate(0.000000, 1.000000)">
                            <path d="M11,12.200452 C7.2875,12.200452 0,14.04785 0,17.8847535 L0,20.7269042 L22,20.7269042 L22,17.8847535 C22,14.04785 14.7125,12.200452 11,12.200452 L11,12.200452 Z M11,9.98218798 C13.7225,9.98218798 15.95,7.73619568 15.95,4.99109399 C15.95,2.2459923 13.7225,0 11,0 C8.2775,0 6.05,2.2459923 6.05,4.99109399 C6.05,7.73619568 8.2775,9.98218798 11,9.98218798 L11,9.98218798 Z" id="Name"></path>
                        </g>
                    </g>
                </g>
            </g>
        </g>
    </g>
</svg>