<?xml version="1.0" encoding="UTF-8" standalone="no"?>
<svg width="25px" height="14px" viewBox="0 0 25 14" version="1.1" xmlns="http://www.w3.org/2000/svg" xmlns:xlink="http://www.w3.org/1999/xlink">
    <!-- Generator: sketchtool 3.6.1 (26313) - http://www.bohemiancoding.com/sketch -->
    <title>71C1B395-0A05-47D0-AAA2-B077E78571FF</title>
    <desc>Created with sketchtool.</desc>
    <defs></defs>
    <g id="Web" stroke="none" stroke-width="1" fill="none" fill-rule="evenodd">
        <g id="01.00-Matchs---weball" transform="translate(-1006.000000, -686.000000)" fill="#E9E9E9">
            <g id="Tableau" transform="translate(65.000000, 369.000000)">
                <g id="Group-21" transform="translate(941.000000, 100.000000)">
                    <g id="Paiement" transform="translate(0.000000, 212.000000)">
                        <g transform="translate(0.000000, 5.000000)">
                            <g>
                                <path d="M23.8502105,0.0188376754 L23.8502105,0.0188376754 L23.8502105,0.0188376754 L4.5429187,0.0188376754 L4.5429187,0.0188376754 L4.5429187,0.0188376754 L3.40715146,0.0188376754 L3.40715146,2.29088176 L4.54286861,2.29088176 L4.54286861,2.29088176 C5.16980452,2.29088176 5.67858577,1.78196393 5.67858577,1.15485972 L22.7144432,1.15485972 C22.7144432,1.78196393 23.2232245,2.29088176 23.8501604,2.29088176 L23.8501604,8.53902806 C23.2232245,8.53902806 22.7144432,9.04794589 22.7144432,9.6750501 L22.7144432,10.8110721 L24.9858776,10.8110721 L24.9858776,0.0188376754 L23.8502105,0.0188376754 L23.8502105,0.0188376754 Z M11.2822918,5.88527054 L11.2346092,5.88527054 L11.2346092,5.13096192 L10.3498768,5.13096192 L10.3498768,5.88527054 L10.3021942,5.88527054 C9.65256903,5.88527054 9.0858374,6.3510521 9.0858374,6.96788577 L9.0858374,7.89263527 C9.0858374,8.43451904 9.60939424,8.86963928 10.2351782,8.86963928 L10.3498768,8.86963928 L10.3498768,10.3748998 C10.1488286,10.3419339 9.98985323,10.1863226 9.98985323,10.0045591 L9.98985323,9.62965932 L9.08693931,9.62965932 L9.08693931,10.1102204 C9.08693931,10.7271042 9.65251894,11.1928357 10.3032961,11.1928357 L10.3509787,11.1928357 L10.3509787,11.9471443 L11.2357112,11.9471443 L11.2357112,11.1928357 L11.2833937,11.1928357 C11.9330189,11.1928357 12.4985986,10.7190882 12.4985986,10.1102204 L12.4985986,9.08096192 C12.4985986,8.56177355 12.0170645,8.11077154 11.4094621,8.11077154 L11.2345592,8.11077154 L11.2345592,6.70435872 C11.4390133,6.73842685 11.5945828,6.88612224 11.5945828,7.06563126 L11.5945828,7.45641283 L12.4974967,7.45641283 L12.4974967,6.96793587 C12.4986487,6.37374749 11.931917,5.88527054 11.2822918,5.88527054 L11.2822918,5.88527054 Z M10.3498768,8.0993988 C10.1488286,8.07324649 9.98985323,7.94719439 9.98985323,7.78016032 L9.98985323,7.06563126 C9.98985323,6.88502004 10.1533865,6.73507014 10.3498768,6.70325651 L10.3498768,8.0993988 L10.3498768,8.0993988 Z M11.5946328,9.24564128 L11.5946328,10.0056613 C11.5946328,10.191984 11.4390133,10.3407816 11.2346092,10.3748497 L11.2346092,8.89118236 C11.4424192,8.93777555 11.5946328,9.07865731 11.5946328,9.24564128 L11.5946328,9.24564128 Z M20.443059,3.42690381 L20.443059,3.42690381 L1.13571715,3.42690381 L1.13571715,3.42690381 L1.13571715,3.42690381 L0,3.42690381 L0,13.6511523 L21.5787762,13.6511523 L21.5787762,3.42690381 L20.443059,3.42690381 L20.443059,3.42690381 L20.443059,3.42690381 Z M20.443059,11.3791082 C19.8161231,11.3791082 19.3073419,11.8880261 19.3073419,12.5151303 L2.27143431,12.5151303 C2.27143431,11.8880261 1.76265306,11.3791082 1.13571715,11.3791082 L1.13571715,5.6989479 C1.76265306,5.6989479 2.27143431,5.19003006 2.27143431,4.56292585 L19.3072918,4.56292585 C19.3072918,5.19003006 19.816073,5.6989479 20.4430089,5.6989479 L20.4430089,11.3791082 L20.443059,11.3791082 Z"></path>
                            </g>
                        </g>
                    </g>
                </g>
            </g>
        </g>
    </g>
</svg>