<?xml version="1.0" encoding="UTF-8" standalone="no"?>
<svg width="25px" height="25px" viewBox="0 0 25 25" version="1.1" xmlns="http://www.w3.org/2000/svg" xmlns:xlink="http://www.w3.org/1999/xlink">
    <!-- Generator: sketchtool 3.7.2 (28276) - http://www.bohemiancoding.com/sketch -->
    <title>18A750B2-5C20-4BB4-8AB9-C8138E717F26</title>
    <desc>Created with sketchtool.</desc>
    <defs></defs>
    <g id="Web" stroke="none" stroke-width="1" fill="none" fill-rule="evenodd">
        <g id="01.00-Matchs---myBall" transform="translate(-1089.000000, -522.000000)" fill="#FFFFFF">
            <g id="checked" transform="translate(1089.000000, 522.000000)">
                <path d="M12.5,0 C5.56818182,0 0,5.56818182 0,12.5 C0,19.4318182 5.56818182,25 12.5,25 C19.4318182,25 25,19.4318182 25,12.5 C25,5.56818182 19.4318182,0 12.5,0 L12.5,0 Z M19.7159091,8.57954545 L19.7159091,8.57954545 L10.625,18.0113636 C10.5113636,18.125 10.3977273,18.1818182 10.2272727,18.1818182 C10.0568182,18.1818182 9.88636364,18.125 9.82954545,18.0113636 L5.39772727,13.2386364 L5.28409091,13.125 C5.17045455,13.0113636 5.11363636,12.8409091 5.11363636,12.7272727 C5.11363636,12.6136364 5.17045455,12.4431818 5.28409091,12.3295455 L6.07954545,11.5340909 C6.30681818,11.3068182 6.64772727,11.3068182 6.875,11.5340909 L6.93181818,11.5909091 L10.0568182,14.9431818 C10.1704545,15.0568182 10.3409091,15.0568182 10.4545455,14.9431818 L18.0681818,7.04545455 L18.125,7.04545455 C18.3522727,6.81818182 18.6931818,6.81818182 18.9204545,7.04545455 L19.7159091,7.84090909 C19.9431818,8.01136364 19.9431818,8.35227273 19.7159091,8.57954545 L19.7159091,8.57954545 Z" id="Shape"></path>
            </g>
        </g>
    </g>
</svg>