<?xml version="1.0" encoding="UTF-8" standalone="no"?>
<svg width="25px" height="24px" viewBox="0 0 25 24" version="1.1" xmlns="http://www.w3.org/2000/svg" xmlns:xlink="http://www.w3.org/1999/xlink">
    <!-- Generator: sketchtool 3.6.1 (26313) - http://www.bohemiancoding.com/sketch -->
    <title>02B9A39D-ED74-4214-A8CA-C72F8E8135ED</title>
    <desc>Created with sketchtool.</desc>
    <defs></defs>
    <g id="Web" stroke="none" stroke-width="1" fill="none" fill-rule="evenodd">
        <g id="01.00-Matchs---weball" transform="translate(-1006.000000, -541.000000)" fill="#E9E9E9">
            <g id="Tableau" transform="translate(65.000000, 369.000000)">
                <g id="Group-21" transform="translate(941.000000, 100.000000)">
                    <g id="Group-18" transform="translate(0.000000, 72.000000)">
                        <g id="Phone">
                            <g id="Capa_1">
                                <path d="M24.1608228,18.8608 C24.2120438,19.2488679 24.0924585,19.5862822 23.8025688,19.8730431 L20.3991554,23.213321 C20.245618,23.3820282 20.0452081,23.5255533 19.7978422,23.6435243 C19.5504764,23.7616606 19.3074172,23.8375789 19.0686648,23.871279 C19.0516051,23.871279 19.0003005,23.8756207 18.9149601,23.884056 C18.829787,23.89245 18.7188988,23.8967504 18.5824211,23.8967504 C18.2582029,23.8967504 17.7335748,23.8419206 17.0085369,23.7322196 C16.2834989,23.6225186 15.3964355,23.3525458 14.3473466,22.9224252 C13.2980068,22.4922219 12.1081334,21.8468343 10.7775174,20.9865104 C9.44690136,20.1262279 8.03090312,18.945195 6.52964811,17.4436598 C5.33546799,16.2795803 4.34600447,15.166113 3.56125753,14.1032992 C2.77651059,13.0404027 2.1453011,12.0576834 1.66762905,11.1551 C1.18991519,10.2525167 0.831661155,9.4342869 0.592825131,8.70041071 C0.353989107,7.96653452 0.191921805,7.33388263 0.106623225,6.80245505 C0.021324645,6.27102746 -0.012794787,5.85347721 0.004264929,5.54980431 C0.021324645,5.2461314 0.029854503,5.07742423 0.029854503,5.0436828 C0.063973935,4.80749276 0.140742657,4.56708504 0.260160669,4.32245964 C0.379578681,4.07783425 0.524586267,3.87960332 0.695183427,3.72776687 L4.09859677,0.362058819 C4.33743279,0.125868781 4.61038825,0.00777376177 4.91746314,0.00777376177 C5.13923945,0.00777376177 5.33542618,0.0710389506 5.50602334,0.197569328 C5.6766205,0.324099706 5.82162809,0.480153839 5.9410461,0.665731726 L8.67913052,5.80286506 C8.83266796,6.07279653 8.87531725,6.36803408 8.80707839,6.68857771 C8.73883952,7.00912133 8.59383194,7.2790528 8.37205563,7.49837212 L7.1181665,8.73836983 C7.08404707,8.77211126 7.05419257,8.82694109 7.02860299,8.90285932 C7.00301342,8.97877754 6.99021863,9.04204273 6.99021863,9.09265488 C7.0584575,9.44693994 7.21199494,9.85183715 7.45083097,10.3073465 C7.65554756,10.7122437 7.9711523,11.2057122 8.3976452,11.7877519 C8.8241381,12.3697917 9.42975802,13.0403613 10.214505,13.7995436 C10.9821922,14.5756793 11.6645808,15.1787247 12.2616709,15.6090107 C12.8586355,16.0390486 13.3577994,16.3554986 13.7587028,16.5579472 C14.1596061,16.7603958 14.466681,16.8827085 14.6798856,16.9247612 L14.9996717,16.9880678 C15.0337911,16.9880678 15.0893606,16.9753734 15.1660457,16.9501086 C15.2428144,16.9247612 15.2982585,16.8952788 15.3324198,16.861496 L16.7909837,15.3937436 C17.0982258,15.1238535 17.4563126,14.9888878 17.8657876,14.9888878 C18.1558864,14.9888878 18.3860671,15.0394586 18.5566643,15.1407242 L18.582212,15.1407242 L23.520958,18.0256169 C23.8793375,18.2451016 24.0925421,18.5233857 24.1608228,18.8608 L24.1608228,18.8608 Z" id="Shape"></path>
                            </g>
                        </g>
                    </g>
                </g>
            </g>
        </g>
    </g>
</svg>