<?xml version="1.0" encoding="UTF-8" standalone="no"?>
<svg width="15px" height="17px" viewBox="0 0 15 17" version="1.1" xmlns="http://www.w3.org/2000/svg" xmlns:xlink="http://www.w3.org/1999/xlink">
    <!-- Generator: sketchtool 3.7.2 (28276) - http://www.bohemiancoding.com/sketch -->
    <title>E46F952E-9239-4BE0-9CD3-875894BD86E2</title>
    <desc>Created with sketchtool.</desc>
    <defs></defs>
    <g id="Web" stroke="none" stroke-width="1" fill-rule="evenodd">
        <g id="01.00---Accueil" transform="translate(-1376.000000, -47.000000)">
            <g id="power-button" transform="translate(1376.000000, 47.000000)">
                <g id="Capa_1">
                    <g id="Group">
                        <path d="M7.49920063,8.34628732 C7.17460815,8.34628732 6.91142633,8.08141521 6.91142633,7.75473803 L6.91142633,0.591549296 C6.91142633,0.264872113 7.17460815,0 7.49920063,0 C7.8237931,0 8.08697492,0.264872113 8.08697492,0.591549296 L8.08697492,7.75473803 C8.08697492,8.08141521 7.82384013,8.34628732 7.49920063,8.34628732 L7.49920063,8.34628732 Z" id="Shape"></path>
                        <path d="M7.49920063,16.7983437 C3.3692163,16.7983437 0.00926332288,13.4167639 0.00926332288,9.2603493 C0.00926332288,7.5981431 0.536332288,6.02192451 1.53357367,4.70210704 C2.49822884,3.42535437 3.86760188,2.47499493 5.38937304,2.02617465 C5.70089342,1.93394028 6.02741379,2.11396056 6.11873041,2.42743437 C6.21,2.74095549 6.0315047,3.06957296 5.71998433,3.16147606 C3.04970219,3.94913577 1.18476489,6.45702085 1.18476489,9.2603493 C1.18476489,12.7644507 4.01736677,15.6152451 7.49915361,15.6152451 C10.9808934,15.6152451 13.8135423,12.7644507 13.8135423,9.2603493 C13.8135423,6.45702085 11.948605,3.94913577 9.27832288,3.16147606 C8.96680251,3.06962028 8.78830721,2.74095549 8.87962382,2.42743437 C8.97084639,2.11391324 9.29741379,1.93403493 9.60898119,2.02617465 C11.1307994,2.47499493 12.5000784,3.42535437 13.4647806,4.70210704 C14.4620219,6.02197183 14.9890909,7.5981431 14.9890909,9.2603493 C14.989185,13.4167639 11.629185,16.7983437 7.49920063,16.7983437 L7.49920063,16.7983437 Z" id="Shape"></path>
                    </g>
                </g>
            </g>
        </g>
    </g>
</svg>