<?xml version="1.0" encoding="UTF-8" standalone="no"?>
<svg width="25px" height="24px" viewBox="0 0 25 24" version="1.1" xmlns="http://www.w3.org/2000/svg" xmlns:xlink="http://www.w3.org/1999/xlink">
    <!-- Generator: sketchtool 3.7.2 (28276) - http://www.bohemiancoding.com/sketch -->
    <title>A5FD2150-3961-44D7-AC80-354BF6C8E702</title>
    <desc>Created with sketchtool.</desc>
    <defs></defs>
    <g id="Web" stroke="none" stroke-width="1" fill="none" fill-rule="evenodd">
        <g id="01.00-Matchs---myBall" transform="translate(-1090.000000, -536.000000)" fill="#E9E9E9">
            <g id="Group-19" transform="translate(1030.000000, 0.000000)">
                <g id="Scores" transform="translate(60.000000, 536.000000)">
                    <g id="Group">
                        <g>
                            <rect id="Rectangle-path" x="0" y="13.7571074" width="7.3889662" height="9.92236581"></rect>
                            <rect id="Rectangle-path" x="17.594334" y="11.2076044" width="7.3889662" height="12.4718191"></rect>
                            <rect id="Rectangle-path" x="8.79662028" y="7.50780318" width="7.39110338" height="16.17167"></rect>
                            <polygon id="Shape" points="21.3456262 3.69000994 22.391998 5.81277336 24.7356362 6.15367793 23.0416998 7.80581511 23.440507 10.1398111 21.3456262 9.03767396 19.2507455 10.1398111 19.6495527 7.80581511 17.9556163 6.15367793 20.2971173 5.81272366"></polygon>
                            <polygon id="Shape" points="12.5318588 0.0116302187 13.5793241 2.13548708 15.9229622 2.47644135 14.2290258 4.12962227 14.6289264 6.46143141 12.5329523 5.36038767 10.4369781 6.46143141 10.8357853 4.12962227 9.14184891 2.47644135 11.4843936 2.13548708"></polygon>
                            <polygon id="Shape" points="3.56580517 6.16550696 4.61217694 8.28936382 6.95581511 8.63136183 5.26297217 10.2824056 5.66177932 12.6153082 3.56580517 11.5142644 1.46983101 12.6164016 1.86973161 10.283499 0.17584493 8.63240557 2.51838966 8.29040755"></polygon>
                        </g>
                    </g>
                </g>
            </g>
        </g>
    </g>
</svg>