<?xml version="1.0" encoding="UTF-8" standalone="no"?>
<svg width="25px" height="24px" viewBox="0 0 25 24" version="1.1" xmlns="http://www.w3.org/2000/svg" xmlns:xlink="http://www.w3.org/1999/xlink">
    <!-- Generator: sketchtool 3.6.1 (26313) - http://www.bohemiancoding.com/sketch -->
    <title>DD3567BA-9194-4857-8164-3A0C6F6F25CC</title>
    <desc>Created with sketchtool.</desc>
    <defs></defs>
    <g id="Web" stroke="none" stroke-width="1" fill="none" fill-rule="evenodd">
        <g id="01.00-Matchs---weball" transform="translate(-1006.000000, -746.000000)" fill="#E9E9E9">
            <g id="Tableau" transform="translate(65.000000, 369.000000)">
                <g id="Group-21" transform="translate(941.000000, 100.000000)">
                    <g id="Scores" transform="translate(0.000000, 277.000000)">
                        <g id="Group">
                            <g>
                                <rect id="Rectangle-path" x="0" y="13.7571074" width="7.3889662" height="9.92236581"></rect>
                                <rect id="Rectangle-path" x="17.594334" y="11.2076044" width="7.3889662" height="12.4718191"></rect>
                                <rect id="Rectangle-path" x="8.79662028" y="7.50780318" width="7.39110338" height="16.17167"></rect>
                                <path d="M21.3456262,3.69000994 L22.391998,5.81277336 L24.7356362,6.15367793 L23.0416998,7.80581511 L23.440507,10.1398111 L21.3456262,9.03767396 L19.2507455,10.1398111 L19.6495527,7.80581511 L17.9556163,6.15367793 L20.2971173,5.81272366 L21.3456262,3.69000994 L21.3456262,3.69000994 Z" id="Shape"></path>
                                <path d="M12.5318588,0.0116302187 L13.5793241,2.13548708 L15.9229622,2.47644135 L14.2290258,4.12962227 L14.6289264,6.46143141 L12.5329523,5.36038767 L10.4369781,6.46143141 L10.8357853,4.12962227 L9.14184891,2.47644135 L11.4843936,2.13548708 L12.5318588,0.0116302187 L12.5318588,0.0116302187 Z" id="Shape"></path>
                                <path d="M3.56580517,6.16550696 L4.61217694,8.28936382 L6.95581511,8.63136183 L5.26297217,10.2824056 L5.66177932,12.6153082 L3.56580517,11.5142644 L1.46983101,12.6164016 L1.86973161,10.283499 L0.17584493,8.63240557 L2.51838966,8.29040755 L3.56580517,6.16550696 L3.56580517,6.16550696 Z" id="Shape"></path>
                            </g>
                        </g>
                    </g>
                </g>
            </g>
        </g>
    </g>
</svg>