<?xml version="1.0" encoding="UTF-8" standalone="no"?>
<svg width="23px" height="29px" viewBox="0 0 23 29" version="1.1" xmlns="http://www.w3.org/2000/svg" xmlns:xlink="http://www.w3.org/1999/xlink" xmlns:sketch="http://www.bohemiancoding.com/sketch/ns">
    <!-- Generator: Sketch 3.4.4 (17249) - http://www.bohemiancoding.com/sketch -->
    <title>soccer34</title>
    <desc>Created with Sketch.</desc>
    <defs></defs>
    <g id="Web---Manager" stroke="none" stroke-width="1" fill="none" fill-rule="evenodd" sketch:type="MSPage">
        <g id="01.00-Matchs-List" sketch:type="MSArtboardGroup" transform="translate(-637.000000, -381.000000)" fill="#2D2D2D">
            <g id="Terrain-1-+-soccer34" sketch:type="MSLayerGroup" transform="translate(637.000000, 377.000000)">
                <g id="Terrain" sketch:type="MSShapeGroup">
                    <g id="soccer34" transform="translate(0.000000, 4.000000)">
                        <g id="Group">
                            <path d="M8.42419231,13.6973846 L15.0428846,13.6973846 C14.8960385,12.0343077 13.4691538,10.6622692 11.7344231,10.6622692 C9.99880769,10.6622692 8.57103846,12.0343077 8.42419231,13.6973846 Z" id="Shape"></path>
                            <rect id="Rectangle-path" x="7.13088462" y="0" width="9.68476923" height="1.76038462"></rect>
                            <path d="M11.7344231,18.2867692 C9.61665385,18.2867692 7.86069231,16.6334231 7.56965385,14.6757692 L0.280423077,14.6757692 L0.280423077,27.1223077 C0.280423077,27.8131923 0.840384615,28.3731538 1.53126923,28.3731538 L6.24892308,28.3731538 L6.24892308,26.1439231 C6.24892308,25.8988846 6.41611538,25.7308077 6.66115385,25.7308077 L17.2906923,25.7308077 C17.5339615,25.7308077 17.6967308,25.8971154 17.6967308,26.1439231 L17.6967308,28.3731538 L21.7049231,28.3731538 C22.3011538,28.3731538 22.7850385,27.8892692 22.7850385,27.2912692 L22.7850385,14.6757692 L15.9009615,14.6757692 C15.6072692,16.6334231 13.8504231,18.2867692 11.7344231,18.2867692 L11.7344231,18.2867692 Z" id="Shape"></path>
                            <path d="M17.6967308,0 L17.6967308,2.22923077 C17.6967308,2.47426923 17.5313077,2.64146154 17.2889231,2.64146154 L6.66115385,2.64146154 C6.41611538,2.64146154 6.24892308,2.47426923 6.24892308,2.22923077 L6.24892308,0 L1.54630769,0 C0.847461538,0 0.281307692,0.566153846 0.281307692,1.265 L0.281307692,13.6973846 L7.53603846,13.6973846 C7.68465385,11.5451154 9.50961538,9.77676923 11.7344231,9.77676923 C13.9583462,9.77676923 15.7824231,11.5451154 15.9310385,13.6973846 L22.7850385,13.6973846 L22.7850385,1.081 C22.7850385,0.483884615 22.3011538,0 21.7031538,0 L17.6967308,0 L17.6967308,0 Z" id="Shape"></path>
                            <path d="M11.7344231,17.4003846 C13.3621154,17.4003846 14.7182308,16.1433462 15.0013077,14.6757692 L8.46311538,14.6757692 C8.74884615,16.1433462 10.1058462,17.4003846 11.7344231,17.4003846 L11.7344231,17.4003846 Z" id="Shape"></path>
                            <rect id="Rectangle-path" x="7.13088462" y="26.6127692" width="9.68476923" height="1.76038462"></rect>
                        </g>
                    </g>
                </g>
            </g>
        </g>
    </g>
</svg>