<?xml version="1.0" encoding="UTF-8" standalone="no"?>
<svg width="9px" height="18px" viewBox="0 0 9 18" version="1.1" xmlns="http://www.w3.org/2000/svg" xmlns:xlink="http://www.w3.org/1999/xlink">
    <!-- Generator: sketchtool 3.6.1 (26313) - http://www.bohemiancoding.com/sketch -->
    <title>03A307C4-A4E4-4E60-8C32-EDBFD288F80B</title>
    <desc>Created with sketchtool.</desc>
    <defs></defs>
    <g id="Web" stroke="none" stroke-width="1" fill="none" fill-rule="evenodd">
        <g id="01.00-Matchs---weball" transform="translate(-744.000000, -843.000000)" fill="#EBEBEB">
            <g id="Tableau" transform="translate(65.000000, 369.000000)">
                <g id="Group-15" transform="translate(468.000000, 417.000000)">
                    <g id="Group-16">
                        <g id="Group-10" transform="translate(41.000000, 52.000000)">
                            <g id="Team-B" transform="translate(161.000000, 0.000000)">
                                <g id="People" transform="translate(9.804677, 0.000000)">
                                    <path d="M6.52943017,10.2973612 L1.2954397,10.2973612 C0.72374697,10.2973612 0.260127664,10.7569193 0.260127664,11.3241396 L0.647521273,15.5872641 L0.659007337,15.7153622 C0.718003938,16.0233957 0.990536909,16.2561654 1.31841182,16.2561654 L1.31841182,16.2571623 L1.52098422,16.2571623 C1.53090401,16.2561654 1.54030169,16.2561654 1.54969938,16.2561654 C1.56014126,16.2561654 1.56901685,16.2561654 1.57841454,16.2571623 C1.79090672,16.27062 1.96319768,16.430618 1.99243494,16.6364722 C1.99608959,16.6564096 1.99713378,16.6753502 1.99817797,16.6947892 L2.35685642,21.161774 L2.36520992,21.2614612 C2.41585302,21.5794635 2.69308483,21.8231988 3.02774697,21.8231988 L4.79816709,21.8231988 C5.12760828,21.8231988 5.40222963,21.58694 5.45809367,21.2759159 L5.46853554,21.1468209 L5.82773609,16.6883095 C5.82773609,16.6733564 5.82930237,16.6589018 5.83086865,16.6449456 C5.85801753,16.4346055 6.03187477,16.2711185 6.24645533,16.2571623 C6.25637511,16.2561654 6.26629489,16.2561654 6.27517049,16.2561654 C6.28509027,16.2561654 6.29448796,16.2561654 6.30440774,16.2571623 L6.50384758,16.2571623 L6.50384758,16.2561654 C6.84007599,16.2561654 7.1178299,16.0114332 7.16742881,15.6919357 C7.16795091,15.6899419 7.16795091,15.6869513 7.168473,15.6844591 L7.17369394,15.6186655 L7.56422011,11.3236412 C7.56422011,10.7569193 7.1011229,10.2973612 6.52943017,10.2973612 Z M3.91190916,9.01671255 C5.19477128,9.01671255 6.2362033,8.01322656 6.2362033,6.77582317 C6.2362033,5.53841978 5.19477128,4.53444237 3.91190916,4.53444237 C2.62798814,4.53444237 1.58814447,5.53841978 1.58814447,6.77582317 C1.58814447,8.01322656 2.62851759,9.01671255 3.91190916,9.01671255 Z" id="User-2"></path>
                                </g>
                            </g>
                        </g>
                    </g>
                </g>
            </g>
        </g>
    </g>
</svg>