<?xml version="1.0" encoding="UTF-8" standalone="no"?>
<svg width="31px" height="26px" viewBox="0 0 31 26" version="1.1" xmlns="http://www.w3.org/2000/svg" xmlns:xlink="http://www.w3.org/1999/xlink" xmlns:sketch="http://www.bohemiancoding.com/sketch/ns">
    <!-- Generator: Sketch 3.4.4 (17249) - http://www.bohemiancoding.com/sketch -->
    <title>name</title>
    <desc>Created with Sketch.</desc>
    <defs></defs>
    <g id="Web" stroke="none" stroke-width="1" fill="none" fill-rule="evenodd" sketch:type="MSPage">
        <g id="02.00-Register-User" sketch:type="MSArtboardGroup" transform="translate(-460.000000, -687.000000)">
            <g id="name" sketch:type="MSLayerGroup" transform="translate(456.564219, 683.461929)">
                <g id="group" transform="translate(3.769293, 3.450948)" stroke="#383838" sketch:type="MSShapeGroup">
                    <path d="M15.0771716,15.6059559 C9.98862617,15.6059559 0,17.873217 0,22.582144 L0,26.0702381 L30.1543432,26.0702381 L30.1543432,22.582144 C30.1543432,17.873217 20.165717,15.6059559 15.0771716,15.6059559 L15.0771716,15.6059559 Z M15.0771716,12.883541 C18.8087715,12.883541 21.8618988,10.1270959 21.8618988,6.75810742 C21.8618988,3.38911898 18.8087715,0.632673886 15.0771716,0.632673886 C11.3455716,0.632673886 8.29244437,3.38911898 8.29244437,6.75810742 C8.29244437,10.1270959 11.3455716,12.883541 15.0771716,12.883541 L15.0771716,12.883541 Z" id="shape"></path>
                </g>
                <rect id="bounds" sketch:type="MSShapeGroup" x="4.54747351e-13" y="0" width="37.6929289" height="34.0301863"></rect>
            </g>
        </g>
    </g>
</svg>