<?xml version="1.0" encoding="UTF-8" standalone="no"?>
<svg width="131px" height="71px" viewBox="0 0 131 71" version="1.1" xmlns="http://www.w3.org/2000/svg" xmlns:xlink="http://www.w3.org/1999/xlink">
    <!-- Generator: sketchtool 3.6.1 (26313) - http://www.bohemiancoding.com/sketch -->
    <title>5F92A799-A551-4B5E-A07B-C2F9D0DCC04B</title>
    <desc>Created with sketchtool.</desc>
    <defs></defs>
    <g id="Web" stroke="none" stroke-width="1" fill-rule="evenodd">
        <g id="00.03-Connexion---myBall" transform="translate(-669.000000, -309.000000)">
            <g id="logo---black" transform="translate(669.000000, 309.000000)">
                <text id="myBall" font-family="Avenir-Light, Avenir" font-size="19.6271425" font-weight="300" letter-spacing="1.56677604">
                    <tspan x="62.9033346" y="52.6125846">myBal</tspan>
                    <tspan x="123.828635" y="52.6125846" letter-spacing="2.06284618">l</tspan>
                </text>
                <g id="Page-1" transform="translate(4.000000, 2.000000)">
                    <path d="M46.7956974,29.4183684 C46.7956974,37.5054949 40.1258861,44.069457 31.9072914,44.069457 C23.689089,44.069457 17.0188854,37.5186532 17.0188854,29.4183684 C17.0188854,21.3180835 23.689089,14.7672797 31.9072914,14.7672797 C40.1258861,14.7672797 46.7956974,21.3312418 46.7956974,29.4183684" id="Fill-1"></path>
                    <path d="M17.4293052,29.5396633 C17.5748469,30.1999671 17.7733485,30.8606696 18.02481,31.4938595 C18.4218133,32.5050494 18.9643582,33.4887266 19.626161,34.4054165 C19.5598631,35.2140494 19.6524448,36.5350557 20.4468436,38.1120494 C20.4335056,38.0849354 20.4068295,38.0713785 20.3938837,38.0446633 C20.3409238,37.9772772 20.2879639,37.8963342 20.2350039,37.8289481 C19.612823,36.9932013 19.0836161,36.0900684 18.6599368,35.1466633 C17.8792683,33.3946253 17.4426432,31.4807013 17.4293052,29.5532203 C17.4159671,29.5667772 17.4293052,29.5532203 17.4293052,29.5396633 L17.4293052,29.5396633 Z M21.4260137,22.4904418 C21.4522975,22.4637266 21.4789736,22.4366127 21.5052574,22.4094987 L26.7859497,23.3664608 L28.2017448,28.8925177 L23.7817493,34.9309481 L20.3009096,33.7315557 C19.7187428,32.9093658 19.2554416,32.0333468 18.8984525,31.1302139 C18.4614351,29.9978089 18.1970278,28.8251316 18.1307299,27.6392962 C19.4806193,24.3908089 20.8701307,22.9757013 21.4260137,22.4904418 L21.4260137,22.4904418 Z M22.6566452,18.4468785 C23.8213711,17.5034734 25.1183007,16.6812835 26.5344881,16.1824671 C27.8710395,15.7107646 29.4327687,15.8590937 30.82228,16.0074228 C30.9281998,16.0209797 32.2514132,16.1693089 32.2514132,16.209581 L32.1325476,19.5386127 L27.0903711,22.4637266 L21.783395,21.5067646 C21.9289367,20.6710177 22.1670602,19.4576696 22.3126019,18.7299797 C22.4318598,18.6358785 22.5507254,18.5413785 22.6566452,18.4468785 L22.6566452,18.4468785 Z M33.2309755,16.1960241 C34.4878909,15.8052646 37.214346,16.3846253 38.3127739,16.6410114 C39.4508237,17.193657 40.5096298,17.8942329 41.4491779,18.7164228 C42.2828063,19.4309544 43.0238528,20.2395873 43.6723176,21.1291633 C43.6460338,21.1562772 43.3812342,22.6387709 43.2223544,23.1643025 L37.9687306,23.4206886 L33.0983796,19.5254544 L33.2309755,16.1960241 Z M45.4458864,28.0164987 C45.4458864,28.5691443 45.3929265,29.351062 45.2207087,30.2673532 C45.0222071,31.3052582 44.7177856,32.2893342 44.2944986,33.2056253 C43.9637933,33.9066 43.5797358,34.5669038 43.1297727,35.1869354 C41.885803,35.753138 40.4037099,35.8743532 39.5963654,35.9014671 L36.1422018,29.6206063 L38.193516,24.3369797 L43.3945723,24.0809924 C44.3474585,25.2939418 45.0092613,26.7361633 45.4458864,28.0164987 L45.4458864,28.0164987 Z M45.1810868,33.5832266 C45.6177119,32.6529797 45.9354714,31.6421886 46.1473111,30.6042835 C46.200271,30.8738278 46.2398929,31.1031 46.2661767,31.278543 C46.1735949,31.9388468 46.0413913,32.5991506 45.8562277,33.2598532 C45.2736686,35.2814354 44.2811605,37.0877013 42.997569,38.5969101 C43.3416123,37.7208911 43.5667901,36.7639291 43.7123318,36.0362392 C44.2678225,35.2814354 44.7707455,34.4592456 45.1810868,33.5832266 L45.1810868,33.5832266 Z M24.5227958,35.5238658 L28.9298456,29.4993911 L35.2556136,30.0113658 L38.7756828,36.4134418 C37.7965128,38.6104671 35.626333,40.1874608 35.626333,40.1874608 C35.612995,40.1874608 34.3690253,40.6460051 32.5424966,40.7536633 C31.4707448,40.8210494 30.4252768,40.7672203 29.4194306,40.578619 C28.598748,40.4302899 27.7914035,40.2010177 27.0240731,39.8912013 L24.5227958,35.5238658 Z M36.8173427,42.7752456 C36.658463,42.8426316 36.4995832,42.9100177 36.3407035,42.9642456 C35.4937371,43.2605051 34.5938108,43.4359481 33.7072225,43.5436063 C31.80145,43.7728785 29.8560557,43.6381063 28.0032432,43.1257329 C26.7726116,42.7888025 25.5549258,42.2768278 24.4564979,41.6296823 C24.986097,41.5758532 25.6608456,41.3736949 26.8518553,40.8346063 C27.6329161,41.1444228 28.4398683,41.360138 29.2738889,41.5084671 C30.3589788,41.6970684 31.4970286,41.7644544 32.6484164,41.6835114 C33.6809387,41.6161253 34.5408508,41.454638 35.1234099,41.3063089 C35.8114966,41.7915684 36.7247609,42.3844861 37.161386,42.6811443 C37.0950881,42.6404734 36.8832484,42.7485304 36.8173427,42.7752456 L36.8173427,42.7752456 Z M18.6732748,36.7372139 C19.6394991,38.4218658 20.9097525,39.8912013 22.4451979,41.1041506 C24.0332108,42.3442139 25.8460092,43.2605051 27.8180796,43.7995937 C29.7897578,44.3386823 31.8147881,44.4870114 33.8264804,44.2310241 C35.7718747,43.9885937 37.637633,43.3817203 39.3449039,42.4247582 C41.0655127,41.4677962 42.5609439,40.2281316 43.7782374,38.7185241 C45.0488832,37.1550873 45.9621475,35.3759354 46.5176382,33.4348975 C47.0735212,31.4938595 47.2190629,29.4993911 46.9676014,27.518081 C46.7161399,25.604157 46.1076892,23.7707772 45.141465,22.0861253 C44.1752407,20.4014734 42.9049872,18.932138 41.3699342,17.7191886 C39.781529,16.4791253 37.9687306,15.5624354 35.9966601,15.0233468 C34.024982,14.4842582 31.9999517,14.3359291 29.9882594,14.5923152 C28.042865,14.8347456 26.1771067,15.4412203 24.4698359,16.3981823 C22.749227,17.3551443 21.2671339,18.5952076 20.0365023,20.1048152 C18.7658566,21.6682519 17.8529845,23.4474038 17.2971015,25.3884418 C16.7412185,27.329081 16.5956768,29.3239481 16.8471384,31.3052582 C17.0852619,33.2191823 17.7070505,35.0521633 18.6732748,36.7372139 L18.6732748,36.7372139 Z" id="Fill-3"></path>
                    <path d="M47.5103425,21.7761494 C47.5103425,21.7761494 48.9131919,18.6895481 46.6367,11.0202949 C46.6367,11.0202949 53.7172449,10.8049785 58.3094582,17.6923139 C62.3591266,23.7710165 61.9884072,29.7285038 61.3662262,31.7098139 C60.7310995,33.6911241 63.3516347,34.9579025 64.2911829,32.0870165 C65.2307311,29.2025734 67.374627,21.8706494 63.7615837,15.1850734 C60.1489327,8.4998962 55.2919198,5.17086456 48.1984291,2.56952278 C41.3830761,0.0626810127 38.9214207,3.13572532 37.9685344,5.06320633 C37.0156482,6.99028861 35.4276352,8.56728228 31.9471879,8.64822532 C28.4663482,8.72916835 27.1164588,8.51345316 24.6681414,5.21113671 C22.5642596,2.38092152 18.2101697,5.26536456 15.7485143,7.32721899 C13.2868588,9.38947215 7.966937,14.4976557 9.84603336,23.191257 C9.84603336,23.191257 19.9704005,13.2444342 32.1719733,12.934219 C43.526972,13.2173203 47.5103425,21.7761494 47.5103425,21.7761494" id="Fill-5"></path>
                    <path d="M30.2663578,45.888881 C30.2663578,45.888881 32.1325084,48.7326532 39.9140857,51.0106215 C39.9140857,51.0106215 35.3614942,58.1810582 26.6799906,57.3050392 C19.3217004,56.5637924 15.6031295,53.5174633 14.2661858,51.9137544 C12.9296344,50.3232038 10.4020733,51.7925392 12.3474676,54.1243367 C14.2928619,56.4692924 19.3879983,62.2246215 27.0636558,62.8849253 C34.7393132,63.5456278 40.2185071,61.3350456 46.2928136,56.8871658 C52.1289965,52.6278873 50.845405,48.9216532 49.720301,47.0751152 C48.5955893,45.2417354 48.11895,43.0718241 49.9321407,40.1471089 C51.7586694,37.2223937 52.6715415,36.2383177 56.8137917,36.0094443 C60.373875,35.8204443 60.2812933,30.6584316 59.8576139,27.4908873 C59.4343269,24.3369 57.9651795,17.1664633 49.5351374,13.9857608 C49.5351374,13.9857608 52.5126617,27.7468747 46.1472719,37.9907544 C39.7418679,47.2637165 30.2663578,45.888881 30.2663578,45.888881" id="Fill-7"></path>
                    <path d="M17.9454094,19.8757025 C17.9454094,19.8757025 14.5179219,20.1181329 8.7343066,25.7251329 C8.7343066,25.7251329 4.5394888,18.338981 9.50202927,11.2766013 C13.6972394,5.292 18.210209,3.55351899 20.2878069,3.16275949 C22.3524592,2.77160127 22.2598774,-0.0992848101 19.2423389,0.439803797 C16.2248005,0.992449367 8.62877906,2.61011392 4.35393294,8.90413291 C0.0794791066,15.1985506 -0.608607532,21.0077089 0.423522426,28.3938608 C1.41603052,35.4701962 5.33349527,36.1576139 7.50367502,36.0766709 C9.68719283,35.9957278 11.8444268,36.6157595 13.5650357,39.5947025 C15.2852523,42.5732468 15.7352155,43.8400253 13.9353628,47.519943 C12.4003098,50.6870886 17.0454831,53.0862722 20.0630215,54.2453924 C23.0801677,55.4045127 30.1736583,57.587981 37.0686473,51.8462089 C37.0686473,51.8462089 23.3712511,47.7894873 17.3102827,37.3570063 C12.1755244,27.3830696 17.9454094,19.8757025 17.9454094,19.8757025" id="Fill-9"></path>
                </g>
            </g>
        </g>
    </g>
</svg>