<?xml version="1.0" encoding="UTF-8" standalone="no"?>
<svg width="87px" height="32px" viewBox="0 0 87 47" version="1.1" xmlns="http://www.w3.org/2000/svg" xmlns:xlink="http://www.w3.org/1999/xlink" xmlns:sketch="http://www.bohemiancoding.com/sketch/ns">
    <!-- Generator: Sketch 3.4.4 (17249) - http://www.bohemiancoding.com/sketch -->
    <title>logo - black</title>
    <desc>Created with Sketch.</desc>
    <defs>
        <path id="path-1" d="M0,0.236708861 L41.862087,0.236708861 L41.862087,40 L0,40"></path>
    </defs>
    <g id="Web" stroke="none" stroke-width="1" fill-rule="evenodd" sketch:type="MSPage">
        <g id="00.00-Home-Page" sketch:type="MSArtboardGroup" transform="translate(-42.000000, -13.000000)">
            <g id="Bar" sketch:type="MSLayerGroup">
                <g id="logo---black" transform="translate(46.000000, 14.000000)">
                    <text id="weBall" sketch:type="MSTextLayer" font-family="Avenir" font-size="14" font-weight="260" sketch:alignment="middle" letter-spacing="1.56677604">
                        <tspan x="36.0280104" y="31.4365617">weBall</tspan>
                    </text>
                    <g id="Page-1">
                        <path d="M29.7790802,18.6783291 C29.7790802,23.8130127 25.5346548,27.9806076 20.30464,27.9806076 C15.0748748,27.9806076 10.8301998,23.8213671 10.8301998,18.6783291 C10.8301998,13.5352911 15.0748748,9.37605063 20.30464,9.37605063 C25.5346548,9.37605063 29.7790802,13.5436456 29.7790802,18.6783291" id="Fill-1" sketch:type="MSShapeGroup"></path>
                        <path d="M11.091376,18.7553418 C11.1839935,19.1745823 11.3103127,19.5940759 11.4703337,19.9961013 C11.7229721,20.6381266 12.068228,21.2626835 12.4893752,21.8447089 C12.4471856,22.3581266 12.5061013,23.1968608 13.0116278,24.1981266 C13.0031399,24.1809114 12.9861642,24.1723038 12.977926,24.1553418 C12.9442242,24.112557 12.9105225,24.0611646 12.8768207,24.0183797 C12.4808874,23.4877468 12.1441193,22.9143291 11.8745052,22.3153418 C11.3777162,21.2029367 11.0998639,19.9877468 11.091376,18.7639494 C11.0828882,18.772557 11.091376,18.7639494 11.091376,18.7553418 L11.091376,18.7553418 Z M13.634736,14.2796456 C13.651462,14.2626835 13.6684377,14.2454684 13.6851638,14.2282532 L17.0456043,14.8358481 L17.9465649,18.3444557 L15.1338404,22.1783797 L12.9187607,21.4168608 C12.5482909,20.8948354 12.2534628,20.3386329 12.026288,19.7652152 C11.748186,19.0462278 11.5799268,18.3016709 11.5377372,17.5487595 C12.3967578,15.4862278 13.2809922,14.5877468 13.634736,14.2796456 L13.634736,14.2796456 Z M14.4178651,11.7123038 C15.1590544,11.1133165 15.9843732,10.5912911 16.8855834,10.2745823 C17.7361161,9.97508861 18.7299437,10.0692658 19.6141782,10.163443 C19.6815817,10.1720506 20.5236266,10.2662278 20.5236266,10.2917975 L20.4479848,12.4054684 L17.2393271,14.2626835 L13.8621605,13.6550886 C13.9547779,13.1244557 14.106311,12.3540759 14.1989285,11.8920506 C14.2748199,11.8323038 14.3504616,11.7723038 14.4178651,11.7123038 L14.4178651,11.7123038 Z M21.1469844,10.2831899 C21.9468397,10.0350886 23.6818565,10.4029367 24.3808561,10.5657215 C25.1050696,10.9166076 25.7788553,11.3614177 26.3767496,11.883443 C26.9072404,12.3371139 27.3788154,12.8505316 27.7914748,13.4153418 C27.7747488,13.432557 27.6062399,14.3738228 27.5051346,14.7074937 L24.1619195,14.8702785 L21.0626052,12.3971139 L21.1469844,10.2831899 Z M28.9201095,17.7882532 C28.9201095,18.1391392 28.8864078,18.6355949 28.7768146,19.2173671 C28.6504954,19.8763544 28.4567727,20.5011646 28.1874082,21.0829367 C27.9769594,21.528 27.7325592,21.9472405 27.446219,22.3409114 C26.6546019,22.7004051 25.7114518,22.7773671 25.1976871,22.7945823 L22.999583,18.8067342 L24.3049647,15.4520506 L27.6147278,15.289519 C28.2211099,16.0596456 28.6422572,16.9753418 28.9201095,17.7882532 L28.9201095,17.7882532 Z M28.7516007,21.3226835 C29.029453,20.7320506 29.2316636,20.0902785 29.3664707,19.4312911 C29.4001725,19.6024304 29.4253864,19.748 29.4421124,19.8593924 C29.3831968,20.2786329 29.2990672,20.6978734 29.1812358,21.1173671 C28.8105164,22.4009114 28.1789203,23.5477468 27.3620894,24.5059747 C27.581026,23.9497722 27.7243209,23.3421772 27.8169384,22.8801519 C28.1704325,22.4009114 28.4904744,21.8788861 28.7516007,21.3226835 L28.7516007,21.3226835 Z M15.6054155,22.5548354 L18.4099017,18.7297722 L22.4353905,19.0548354 L24.6754345,23.1196456 C24.0523263,24.5145823 22.6713028,25.5158481 22.6713028,25.5158481 C22.662815,25.5158481 21.8711979,25.8069873 20.7088615,25.8753418 C20.0268376,25.9181266 19.3615398,25.8839494 18.7214558,25.7642025 C18.1992033,25.6700253 17.6854386,25.5244557 17.1971375,25.3277468 L15.6054155,22.5548354 Z M23.4292181,27.1588861 C23.3281128,27.2016709 23.2270075,27.2444557 23.1259022,27.2788861 C22.5869236,27.4669873 22.0142432,27.5783797 21.4500507,27.6467342 C20.2372864,27.7923038 18.9993082,27.7067342 17.8202457,27.3814177 C17.0371165,27.1674937 16.2622255,26.8424304 15.5632259,26.4315443 C15.9002436,26.3973671 16.329629,26.2690127 17.0875443,25.9267342 C17.5845829,26.123443 18.098098,26.2604051 18.6288384,26.3545823 C19.3193501,26.4743291 20.0435636,26.5171139 20.776265,26.4657215 C21.4333246,26.4229367 21.9805414,26.3204051 22.3512609,26.2262278 C22.7891342,26.5343291 23.3703024,26.9107848 23.6481548,27.0991392 C23.6059651,27.0733165 23.4711581,27.1419241 23.4292181,27.1588861 L23.4292181,27.1588861 Z M11.8829931,23.3252152 C12.4978631,24.3948354 13.3062062,25.3277468 14.2833077,26.0978734 C15.2938614,26.8852152 16.4474604,27.4669873 17.7024143,27.8092658 C18.9571186,28.1515443 20.2457742,28.2457215 21.5259421,28.0831899 C22.7639203,27.9292658 23.951221,27.5439494 25.0376661,26.9363544 C26.132599,26.3287595 27.084237,25.5416709 27.8588784,24.5831899 C28.6674711,23.5905316 29.2486393,22.4609114 29.6021334,21.2285063 C29.9558771,19.9961013 30.0484946,18.7297722 29.8884736,17.4717975 C29.7284526,16.2566076 29.3412568,15.092557 28.7263868,14.0229367 C28.1115168,12.9533165 27.3031737,12.0204051 26.3263218,11.2502785 C25.3155184,10.4629367 24.1619195,9.88091139 22.9069655,9.53863291 C21.6522613,9.19635443 20.3636056,9.10217722 19.0834378,9.26496203 C17.8454596,9.41888608 16.6581588,9.80394937 15.5717138,10.4115443 C14.4767808,11.0191392 13.5336307,11.806481 12.7505015,12.764962 C11.9419087,13.7576203 11.3609901,14.8872405 11.0072464,16.1196456 C10.6535027,17.3517975 10.5608853,18.6183797 10.7209062,19.8763544 C10.8724394,21.0915443 11.2681231,22.2553418 11.8829931,23.3252152 L11.8829931,23.3252152 Z" id="Fill-3" sketch:type="MSShapeGroup"></path>
                        <path d="M30.2338543,13.8261266 C30.2338543,13.8261266 31.1265766,11.8663797 29.6779,6.99701266 C29.6779,6.99701266 34.1837013,6.8603038 37.1060189,11.2332152 C39.6830806,15.0927089 39.4471682,18.8752405 39.0512349,20.1332152 C38.6470633,21.3911899 40.3146766,22.1954937 40.9125709,20.3727089 C41.5104652,18.5413165 42.8747626,13.8861266 40.5755533,9.64131646 C38.2765935,5.39675949 35.1857671,3.28308861 30.6717276,1.63144304 C26.3346848,0.0397974684 24.7681768,1.99093671 24.1617946,3.21473418 C23.5554125,4.43827848 22.5448588,5.4395443 20.3300287,5.49093671 C18.1149489,5.54232911 17.2559283,5.40536709 15.6979082,3.30865823 C14.3590743,1.5116962 11.5882898,3.34308861 10.0217818,4.65220253 C8.45527381,5.96156962 5.069869,9.20486076 6.26565759,14.7246076 C6.26565759,14.7246076 12.7084367,8.40916456 20.4730739,8.21220253 C27.6989822,8.39194937 30.2338543,13.8261266 30.2338543,13.8261266" id="Fill-5" sketch:type="MSShapeGroup"></path>
                        <path d="M19.2604095,29.1357975 C19.2604095,29.1357975 20.4479599,30.9413671 25.3998727,32.3876962 C25.3998727,32.3876962 22.502769,36.9403544 16.9781758,36.3841519 C12.2956275,35.913519 9.92926424,33.9793418 9.07848188,32.9611139 C8.22794916,31.9512405 6.61950117,32.8841519 7.85747937,34.3646582 C9.09545758,35.853519 12.3378171,39.5076962 17.2223264,39.9269367 C22.1068357,40.3464304 25.5935954,38.9428861 29.4590632,36.1188354 C33.1729978,33.4145316 32.3561668,31.0613671 31.6401916,29.888962 C30.9244659,28.7249114 30.62115,27.3471899 31.7749986,25.4902278 C32.9373351,23.6332658 33.5182537,23.0084557 36.1542311,22.8631392 C38.4197387,22.7431392 38.360823,19.4656709 38.0912089,17.4545316 C37.8218444,15.452 36.8869324,10.8993418 31.5223602,8.8798481 C31.5223602,8.8798481 33.4171484,17.6170633 29.3664457,24.1211139 C25.2902795,30.0087089 19.2604095,29.1357975 19.2604095,29.1357975" id="Fill-7" sketch:type="MSShapeGroup"></path>
                        <g id="Group-11">
                            <mask id="mask-2" sketch:name="Clip 10">
                                <use xlink:href="#path-1"></use>
                            </mask>
                            <g id="Clip-10"></g>
                            <path d="M11.419806,12.6194937 C11.419806,12.6194937 9.2386776,12.7734177 5.55819511,16.3334177 C5.55819511,16.3334177 2.8887656,11.6437975 6.0467459,7.15974684 C8.71642505,3.36 11.5883148,2.25620253 12.9104226,2.00810127 C14.2242922,1.75974684 14.1653765,-0.0630379747 12.2451248,0.279240506 C10.324873,0.630126582 5.49104122,1.65721519 2.7706846,5.65341772 C0.0505776133,9.64987342 -0.387295702,13.3382278 0.269514271,18.0278481 C0.901110331,22.5207595 3.39404245,22.9572152 4.77506592,22.9058228 C6.16457726,22.8544304 7.53736253,23.2481013 8.63229546,25.1394937 C9.72697875,27.0306329 10.0133189,27.8349367 8.86795818,30.1713924 C7.89110625,32.1822785 10.8471256,33.7055696 12.7673773,34.441519 C14.6873794,35.1774684 19.2014189,36.5637975 23.5891392,32.9182278 C23.5891392,32.9182278 14.8726143,30.3425316 11.0156344,23.7187342 C7.74806097,17.3860759 11.419806,12.6194937 11.419806,12.6194937" id="Fill-9" sketch:type="MSShapeGroup"></path>
                        </g>
                    </g>
                </g>
            </g>
        </g>
    </g>
</svg>